<svg width="152" height="132" viewBox="0 0 152 132" fill="none" xmlns="http://www.w3.org/2000/svg">
<path d="M1 56.5181C8.33347 55.9355 15.6625 55.8428 22.9872 56.24C23.1667 56.2489 23.2564 56.343 23.2564 56.5225V56.836C23.2562 56.9095 23.2769 56.9815 23.316 57.0433C23.3551 57.1051 23.4111 57.1542 23.4771 57.1847L24.8985 57.8601C25.0663 57.9395 25.1354 58.0719 25.106 58.2573L24.413 62.3934C24.3894 62.5318 24.307 62.6009 24.1658 62.6009H22.3603C22.2593 62.6021 22.1616 62.6369 22.0826 62.6999C22.0035 62.7628 21.9477 62.8503 21.9239 62.9485C21.9001 63.0467 21.9097 63.15 21.9512 63.2421C21.9926 63.3343 22.0636 63.41 22.1529 63.4573L23.7994 64.3092C23.9671 64.3945 24.0363 64.5314 24.0068 64.7197L23.3844 68.6219C23.358 68.7749 23.2682 68.8558 23.1152 68.8647L21.0052 68.9574C20.9071 68.9627 20.8132 69.0002 20.7383 69.064C20.6633 69.1278 20.6114 69.2144 20.5907 69.3102C20.5701 69.406 20.5818 69.5056 20.624 69.5935C20.6662 69.6814 20.7366 69.7526 20.8242 69.7961L22.7841 70.776C22.8467 70.8079 22.8976 70.8589 22.9294 70.9215C22.9611 70.9842 22.9721 71.0554 22.9607 71.1247L22.3957 74.6826C22.3427 75.0181 22.1455 75.1961 21.8042 75.2167L19.7295 75.3227C19.6366 75.3268 19.5477 75.3617 19.4769 75.4218C19.406 75.482 19.3571 75.564 19.3379 75.655C19.3187 75.7459 19.3302 75.8407 19.3708 75.9244C19.4113 76.008 19.4785 76.0759 19.5617 76.1172L21.7203 77.1987C21.8792 77.2782 21.9439 77.4062 21.9145 77.5827L21.2833 81.3878C21.2627 81.5173 21.1862 81.582 21.0537 81.582H18.5112C18.4063 81.5805 18.3041 81.6149 18.2215 81.6795C18.139 81.7441 18.081 81.835 18.0573 81.9371C18.0335 82.0393 18.0455 82.1464 18.0911 82.2408C18.1367 82.3352 18.2133 82.4112 18.3081 82.456L20.7183 83.6346C20.7683 83.6603 20.809 83.7006 20.8344 83.7499C20.8598 83.7991 20.8686 83.8546 20.8595 83.9083L20.2371 87.6559C20.2136 87.7972 20.1297 87.8693 19.9855 87.8722L17.2531 87.8767C17.207 87.8766 17.161 87.8904 17.1207 87.9164C16.6675 88.2077 16.644 88.4711 17.0501 88.7065C17.8534 89.1774 18.6951 89.6188 19.575 90.0308C19.7221 90.0985 19.7839 90.2132 19.7604 90.3751L19.2042 93.8844C19.1806 94.0374 19.0909 94.1184 18.9349 94.1272L15.9068 94.2861C15.8139 94.2903 15.7254 94.3253 15.655 94.3855C15.5845 94.4458 15.5362 94.5281 15.5176 94.6193C15.4989 94.7106 15.5109 94.8058 15.5518 94.8901C15.5927 94.9744 15.6601 95.0429 15.7435 95.0851L18.4979 96.4446C18.6539 96.5212 18.7186 96.6462 18.6921 96.8198L18.1448 100.236C18.1212 100.387 18.0344 100.465 17.8843 100.47L14.5825 100.598C14.4869 100.601 14.395 100.636 14.3214 100.697C14.2479 100.758 14.1968 100.842 14.1765 100.935C14.1562 101.029 14.1678 101.126 14.2093 101.213C14.2509 101.299 14.3201 101.368 14.4059 101.411L17.4694 102.942C17.6136 103.016 17.6725 103.131 17.646 103.287L17.0765 106.611C17.0501 106.767 16.9559 106.846 16.794 106.849L13.3068 106.867C13.205 106.868 13.1065 106.903 13.0273 106.967C12.948 107.031 12.8924 107.12 12.8695 107.219C12.8466 107.318 12.8577 107.422 12.901 107.514C12.9442 107.607 13.0172 107.682 13.1082 107.727L16.4321 109.352C16.5557 109.414 16.6057 109.511 16.5822 109.643L16.0613 112.91C16.0522 112.964 16.0249 113.013 15.9839 113.049C15.9429 113.085 15.8908 113.106 15.8362 113.108L12.0532 113.245C11.9566 113.248 11.8638 113.283 11.7895 113.345C11.7153 113.407 11.664 113.492 11.6436 113.587C11.6233 113.681 11.6352 113.78 11.6774 113.867C11.7197 113.953 11.7898 114.024 11.8766 114.066L15.2932 115.744C15.4492 115.82 15.5139 115.945 15.4874 116.119L15.0063 119.116C14.9769 119.307 14.865 119.407 14.6708 119.416L10.6274 119.579C10.5908 119.581 10.555 119.59 10.5223 119.606C10.4896 119.622 10.4608 119.645 10.4378 119.673C10.4148 119.701 10.3981 119.734 10.3889 119.769C10.3798 119.804 10.3783 119.84 10.3846 119.875C10.4773 120.418 11.1438 121.994 11.9737 121.729C12.1326 121.679 12.1738 121.579 12.0973 121.429L11.7442 120.727C11.6441 120.533 11.703 120.431 11.9207 120.423L15.3727 120.281C15.4688 120.278 15.5608 120.241 15.6332 120.177C15.7055 120.114 15.7538 120.028 15.7699 119.933L16.4541 115.774C16.4773 115.643 16.4562 115.507 16.394 115.387C16.3319 115.268 16.2321 115.171 16.1098 115.112L14.4942 114.349C14.4605 114.334 14.433 114.308 14.4162 114.275C14.3995 114.243 14.3946 114.205 14.4024 114.169C14.4102 114.133 14.4302 114.101 14.459 114.078C14.4879 114.056 14.5237 114.043 14.5604 114.044L16.5071 113.991C16.6631 113.988 16.7543 113.909 16.7808 113.753L17.5356 109.277C17.5621 109.118 17.5135 108.987 17.39 108.884C16.9574 108.509 15.8891 108.257 15.6508 107.979C15.5183 107.82 15.5566 107.741 15.7655 107.741L17.5135 107.732C17.5914 107.731 17.6664 107.702 17.7253 107.651C17.7842 107.601 17.8233 107.531 17.8358 107.454L18.6127 102.73C18.6362 102.583 18.5818 102.474 18.4494 102.404L17.0324 101.649C16.9993 101.631 16.9728 101.603 16.9572 101.568C16.9416 101.534 16.9378 101.496 16.9465 101.459C16.9552 101.423 16.9758 101.391 17.0051 101.369C17.0343 101.346 17.0703 101.334 17.1074 101.336H18.3213C18.4775 101.335 18.6284 101.28 18.7466 101.178C18.8648 101.077 18.9426 100.937 18.9658 100.784L19.65 96.3122C19.6765 96.1298 19.6044 96.0017 19.4337 95.9282L18.0918 95.3499C18.0153 95.3175 17.9932 95.2646 18.0256 95.191C18.0433 95.1527 18.0683 95.1189 18.1006 95.0895C18.1536 95.0453 18.2375 95.0306 18.3522 95.0453C18.7613 95.0924 19.1821 95.0836 19.6147 95.0189C19.6989 95.0076 19.7773 94.9694 19.8385 94.9098C19.8997 94.8503 19.9404 94.7724 19.9546 94.6878L20.7712 89.9072C20.7825 89.8362 20.77 89.7634 20.7358 89.6997C20.7015 89.636 20.6474 89.5849 20.5814 89.5541L19.4955 89.0508C19.4569 89.0318 19.4266 88.9993 19.4103 88.9595C19.394 88.9197 19.3927 88.8753 19.4068 88.8347C19.4209 88.794 19.4494 88.7599 19.4868 88.7388C19.5243 88.7176 19.5682 88.7108 19.6103 88.7198C20.4608 88.9287 20.9566 88.6536 21.0979 87.8943C21.2127 87.2852 21.4407 85.8035 21.7821 83.4492C21.7911 83.3913 21.7829 83.332 21.7586 83.2786C21.7343 83.2253 21.6949 83.1802 21.6452 83.149L20.7801 82.6017C20.7624 82.5899 20.7536 82.5737 20.7536 82.5531C20.7536 82.5178 20.7521 82.4796 20.7492 82.4384C20.7477 82.4085 20.7547 82.3788 20.7693 82.3527C20.7839 82.3266 20.8057 82.3051 20.832 82.2908C20.8582 82.2766 20.888 82.27 20.9179 82.2719C20.9478 82.2737 20.9765 82.284 21.0008 82.3015C21.2656 82.4957 21.5216 82.5149 21.7688 82.3589C21.8452 82.3104 21.9105 82.2461 21.9607 82.1701C22.0109 82.094 22.0448 82.008 22.0602 81.9175L22.868 77.106C22.8842 77.0152 22.8681 76.9213 22.8222 76.8402C22.7764 76.759 22.7037 76.6954 22.6164 76.6602L21.9719 76.3997C21.9435 76.3887 21.92 76.368 21.9055 76.3412C21.8911 76.3144 21.8866 76.2833 21.893 76.2535C21.8994 76.2238 21.9162 76.1973 21.9403 76.1787C21.9645 76.1602 21.9945 76.1509 22.0249 76.1525C22.6958 76.1849 23.0696 75.9657 23.1461 75.4948C23.4109 73.8822 23.6831 72.2651 23.9627 70.6436C23.9951 70.4494 23.923 70.3081 23.7464 70.2198L23.2344 69.9682C23.2129 69.9587 23.1954 69.9419 23.1849 69.9209C23.1744 69.8999 23.1715 69.8759 23.1767 69.853C23.1819 69.8301 23.1949 69.8097 23.2135 69.7953C23.232 69.7809 23.255 69.7733 23.2785 69.774H23.5654C23.718 69.774 23.8656 69.7199 23.982 69.6212C24.0984 69.5226 24.176 69.3859 24.2011 69.2355C24.4424 67.7729 24.6837 66.2956 24.925 64.8036C25.0103 64.2798 24.9309 63.8648 24.6866 63.5588C24.6101 63.4617 24.6322 63.4072 24.7528 63.3955C24.9883 63.3719 25.1325 63.2263 25.1854 62.9585C25.5062 61.3193 25.799 59.6655 26.0639 57.9969C26.0867 57.8526 26.0518 57.7052 25.9668 57.5864C25.7931 57.3421 25.8299 57.1435 26.0771 56.9905C26.1772 56.9287 26.2375 56.8389 26.2581 56.7212L28.5976 42.5119C28.5976 42.4779 28.6111 42.4453 28.6351 42.4213C28.6591 42.3973 28.6917 42.3838 28.7256 42.3838C28.7596 42.3838 28.7921 42.3973 28.8162 42.4213C28.8402 42.4453 28.8536 42.4779 28.8536 42.5119L32.257 62.9452C32.2776 63.0688 32.3365 63.1718 32.4336 63.2542C32.6602 63.4514 32.7058 63.6927 32.5704 63.9781C32.5086 64.1106 32.488 64.2504 32.5086 64.3975L33.3032 69.4032C33.3297 69.5798 33.4326 69.6813 33.6122 69.7078L34.2302 69.8005C34.2482 69.8038 34.2649 69.8125 34.278 69.8253C34.2911 69.8381 34.3002 69.8546 34.304 69.8725C34.3077 69.8905 34.3061 69.9092 34.2993 69.9262C34.2924 69.9433 34.2806 69.9579 34.2655 69.9682L33.7137 70.3258C33.5636 70.4229 33.5033 70.5597 33.5327 70.7363L34.3846 75.7508C34.417 75.948 34.5333 76.0495 34.7334 76.0554L35.4441 76.0687C35.4764 76.0687 35.5029 76.0804 35.5235 76.104L35.6118 76.1922C35.6275 76.2087 35.6388 76.2289 35.6448 76.2508C35.6507 76.2727 35.6511 76.2956 35.6457 76.3174C35.6404 76.3391 35.6296 76.3589 35.6144 76.3749C35.5992 76.3909 35.58 76.4025 35.5588 76.4085L34.8349 76.6116C34.6377 76.6675 34.5553 76.797 34.5877 77.0001L35.4176 82.0455C35.4499 82.2485 35.5691 82.3648 35.7751 82.3942L36.4373 82.4913C36.4677 82.496 36.4959 82.5102 36.5177 82.5319C36.5396 82.5536 36.554 82.5817 36.5589 82.6121C36.5638 82.6425 36.559 82.6737 36.545 82.7012C36.5311 82.7286 36.5088 82.751 36.4814 82.765L35.8281 83.1049C35.7602 83.1409 35.7053 83.1974 35.6712 83.2663C35.6371 83.3352 35.6256 83.4131 35.6383 83.4889L36.4637 88.4417C36.4782 88.5258 36.5222 88.6023 36.5883 88.6579C36.6544 88.7135 36.7383 88.7447 36.8257 88.7463L37.8763 88.7595C37.9052 88.7593 37.9334 88.769 37.9561 88.7869C37.9789 88.8048 37.9949 88.8299 38.0016 88.8581C38.0082 88.8862 38.0051 88.9158 37.9928 88.942C37.9805 88.9682 37.9596 88.9895 37.9337 89.0023L36.9228 89.5099C36.7639 89.5894 36.6992 89.7174 36.7286 89.894L37.5055 94.7672C37.5179 94.8428 37.556 94.9116 37.6133 94.9616C37.6706 95.0116 37.7434 95.0397 37.8189 95.0409L39.1873 95.0498C39.2196 95.0493 39.2512 95.0599 39.2766 95.0798C39.302 95.0998 39.3199 95.1279 39.3271 95.1594C39.3343 95.1909 39.3305 95.224 39.3163 95.253C39.3021 95.2821 39.2784 95.3054 39.2491 95.319L37.9425 95.9679C37.8248 96.0268 37.7762 96.1209 37.7968 96.2504L38.5472 101.08C38.5587 101.151 38.5948 101.216 38.6489 101.263C38.7031 101.309 38.7719 101.335 38.843 101.336H40.1805C40.2167 101.334 40.2524 101.344 40.2814 101.366C40.3104 101.388 40.3309 101.419 40.3394 101.454C40.3478 101.489 40.3435 101.526 40.3274 101.559C40.3113 101.591 40.2843 101.617 40.2511 101.631L38.8342 102.338C38.7341 102.388 38.6944 102.467 38.715 102.576L39.4786 107.176C39.5522 107.623 39.8156 107.847 40.2688 107.847H41.2841C41.3195 107.847 41.3542 107.859 41.3823 107.881C41.4103 107.903 41.4299 107.934 41.4377 107.968C41.4455 108.003 41.4411 108.039 41.4251 108.069C41.4092 108.1 41.3827 108.125 41.3503 108.138L40.0657 108.712C39.8686 108.8 39.7876 108.952 39.8229 109.166L40.5778 113.868C40.6072 114.047 40.7131 114.137 40.8956 114.137H44.0429C44.1146 114.137 44.1839 114.112 44.2388 114.066C44.2937 114.02 44.3306 113.956 44.3431 113.885L45.1641 109.074C45.1757 109.008 45.165 108.941 45.1338 108.883C45.1026 108.824 45.0526 108.778 44.992 108.751L43.7075 108.2C43.6162 108.161 43.5824 108.094 43.6059 107.997C43.6354 107.885 43.7089 107.832 43.8266 107.838C44.3416 107.858 44.7801 107.82 45.1421 107.723C45.3039 107.679 45.3981 107.576 45.4246 107.414L46.1662 102.907C46.2162 102.595 46.1014 102.368 45.8219 102.227L44.7183 101.675C44.6835 101.657 44.6558 101.627 44.6396 101.591C44.6233 101.554 44.6194 101.514 44.6284 101.475C44.6375 101.437 44.6589 101.402 44.6895 101.377C44.7201 101.352 44.7581 101.337 44.7978 101.336H46.122C46.1805 101.335 46.237 101.314 46.2814 101.276C46.3259 101.238 46.3554 101.186 46.3648 101.128L47.1549 96.2504C47.1652 96.1865 47.1538 96.1209 47.1226 96.0642C47.0914 96.0074 47.0422 95.9627 46.9828 95.937L45.5217 95.3102C45.493 95.2978 45.4697 95.276 45.4556 95.2484C45.4415 95.2208 45.4375 95.189 45.4442 95.1582C45.4508 95.1275 45.4678 95.0996 45.4923 95.0791C45.5168 95.0586 45.5474 95.0467 45.5791 95.0453H47.0446C47.2418 95.0453 47.358 94.9482 47.3933 94.754C47.6376 93.4297 47.8553 92.1011 48.0466 90.768C48.1908 89.7733 47.845 89.2304 47.0093 89.1391C46.9769 89.1362 46.9563 89.1185 46.9475 89.0862C46.9298 89.0361 46.9136 88.9861 46.8989 88.9361C46.8927 88.9148 46.8913 88.8923 46.8951 88.8705C46.8988 88.8487 46.9074 88.8282 46.9203 88.8106C46.9332 88.7929 46.95 88.7787 46.9693 88.7691C46.9886 88.7595 47.0098 88.7547 47.0314 88.7551H48.1349C48.2077 88.7551 48.2782 88.7295 48.3339 88.6826C48.3896 88.6358 48.427 88.5708 48.4395 88.4991L49.2694 83.5419C49.2861 83.4464 49.2699 83.348 49.2235 83.2623C49.177 83.1767 49.103 83.1088 49.0133 83.0696L48.0334 82.6591C48.0151 82.6529 47.9998 82.6402 47.9901 82.6235C47.9805 82.6068 47.9773 82.5872 47.9811 82.5683C47.9848 82.5494 47.9954 82.5325 48.0107 82.5208C48.026 82.509 48.045 82.5033 48.0643 82.5046C48.925 82.4869 49.415 82.5487 49.5872 81.5511C49.8461 80.0444 50.0948 78.5288 50.3332 77.0045C50.3567 76.8456 50.2935 76.7381 50.1434 76.6822L49.4724 76.4395C49.2252 76.3512 49.2252 76.2614 49.4724 76.1702C49.6755 76.0937 49.8829 76.0598 50.0948 76.0687C50.2073 76.0723 50.3172 76.0349 50.4041 75.9634C50.491 75.8919 50.549 75.7913 50.5671 75.6802C50.8026 74.25 51.0424 72.7933 51.2866 71.3101C51.3779 70.7598 51.2778 70.3405 50.9865 70.0521C50.8629 69.9285 50.885 69.8432 51.0527 69.7961C51.4029 69.699 51.6015 69.5077 51.6486 69.2222C51.9164 67.6419 52.1813 66.0602 52.4432 64.4769C52.4814 64.2415 52.4079 64.009 52.2225 63.7795C52.1401 63.6736 52.1533 63.5838 52.2622 63.5102C52.53 63.3278 52.6874 63.0865 52.7345 62.7863C52.9817 61.2178 53.2451 59.6375 53.5246 58.0454C53.5371 57.972 53.5337 57.8966 53.5147 57.8243C53.4956 57.752 53.4614 57.6844 53.4143 57.6261C53.2289 57.3907 53.2466 57.2038 53.4673 57.0655C53.6173 56.9684 53.7071 56.8315 53.7365 56.655L56.0628 42.4103C56.0678 42.3805 56.0832 42.3537 56.1063 42.3347C56.1294 42.3156 56.1586 42.3054 56.1891 42.306C56.2195 42.3065 56.2491 42.3176 56.2728 42.3375C56.2965 42.3574 56.3128 42.3847 56.3188 42.4147L58.6363 56.4519C58.6628 56.6079 58.7202 56.7506 58.8085 56.8801C58.9409 57.0743 59.0027 57.2862 58.9939 57.5157C58.9276 58.9768 59.2499 60.4247 59.5236 61.8549C59.6383 62.4288 59.5412 62.9585 60.0797 63.4043C60.1886 63.4926 60.2122 63.6015 60.1504 63.7309L60.0179 64.0223C59.9719 64.1202 59.955 64.2305 59.9694 64.3401C60.349 67.0622 60.6256 68.7646 60.7993 69.4473C60.8964 69.8387 61.1642 69.9285 61.6026 69.7166C61.6615 69.6901 61.7071 69.7048 61.7395 69.7608L61.8057 69.8755C61.8119 69.8859 61.8158 69.8974 61.8174 69.9093C61.8189 69.9212 61.818 69.9334 61.8147 69.945C61.8114 69.9565 61.8058 69.9673 61.7982 69.9766C61.7905 69.9859 61.7811 69.9936 61.7704 69.9991L61.1965 70.3169C61.0317 70.4052 60.9655 70.5421 60.9979 70.7275L61.8278 75.7067C61.8601 75.9127 61.9808 76.0216 62.1897 76.0333L62.9225 76.0775C62.9578 76.0805 62.9914 76.0953 63.0178 76.1193C63.0442 76.1434 63.0619 76.1753 63.0681 76.21C63.0742 76.2447 63.0684 76.2801 63.0516 76.3105C63.0348 76.3409 63.008 76.3646 62.9755 76.3777L62.2383 76.6866C62.0823 76.7514 62.0176 76.8676 62.0441 77.0354L62.8519 81.8778C62.9048 82.1779 63.0829 82.3515 63.386 82.3986L63.9907 82.4869C64.0131 82.491 64.034 82.5016 64.0507 82.5172C64.0673 82.5329 64.079 82.5529 64.0842 82.5747C64.0895 82.5966 64.088 82.6192 64.08 82.6397C64.0719 82.6603 64.0578 82.6778 64.0393 82.69L63.3109 83.1888C63.1668 83.2888 63.1079 83.4242 63.1344 83.5949L63.9245 88.4461C63.9368 88.5233 63.9753 88.5937 64.0333 88.6453C64.0913 88.6969 64.1653 88.7263 64.2423 88.7286L65.3547 88.7683C65.38 88.7694 65.4041 88.7787 65.4235 88.7949C65.4429 88.8111 65.4564 88.8332 65.4619 88.8579C65.4675 88.8825 65.4647 88.9083 65.4541 88.9312C65.4435 88.9541 65.4256 88.9729 65.4033 88.9846L64.4984 89.4569C64.3955 89.5109 64.3121 89.5956 64.2599 89.6993C64.2076 89.803 64.1892 89.9205 64.207 90.0352L64.9707 94.7628C64.9831 94.8397 65.0223 94.9097 65.0812 94.9605C65.1401 95.0114 65.2151 95.0398 65.2929 95.0409L66.754 95.0498C66.783 95.0496 66.8111 95.0593 66.8339 95.0772C66.8566 95.0951 66.8726 95.1201 66.8793 95.1483C66.886 95.1765 66.8829 95.2061 66.8705 95.2323C66.8582 95.2585 66.8374 95.2797 66.8114 95.2925L65.4342 95.9635C65.2812 96.04 65.2179 96.1621 65.2444 96.3299L65.9595 100.687C66.0242 101.09 66.2611 101.3 66.6702 101.318L67.7516 101.362C67.7924 101.363 67.8318 101.377 67.8634 101.403C67.895 101.429 67.9169 101.465 67.9256 101.504C67.9343 101.544 67.9292 101.586 67.9113 101.623C67.8933 101.659 67.8635 101.689 67.8267 101.706L66.5068 102.364C66.4341 102.401 66.3751 102.46 66.3385 102.532C66.3019 102.604 66.2897 102.686 66.3038 102.766L67.1028 107.41C67.1351 107.598 67.2455 107.695 67.4338 107.701L69.2966 107.754C69.3246 107.753 69.3519 107.762 69.3739 107.779C69.3959 107.797 69.4111 107.821 69.4169 107.848C69.4227 107.876 69.4187 107.904 69.4056 107.929C69.3924 107.954 69.3711 107.973 69.3452 107.983L67.6987 108.747C67.6023 108.791 67.523 108.865 67.4728 108.959C67.4226 109.052 67.4043 109.159 67.4206 109.263L68.1048 113.572C68.1248 113.699 68.1892 113.814 68.2863 113.898C68.3835 113.981 68.507 114.027 68.6345 114.026H70.5282C70.5623 114.028 70.595 114.04 70.6213 114.062C70.6476 114.083 70.6659 114.113 70.6735 114.147C70.6811 114.18 70.6774 114.215 70.6631 114.246C70.6488 114.277 70.6246 114.302 70.5944 114.318L68.6301 115.232C68.48 115.302 68.4182 115.42 68.4447 115.585L69.173 120.003C69.1867 120.091 69.2316 120.17 69.2996 120.228C69.3676 120.285 69.4542 120.317 69.5438 120.317H71.7421C71.7782 120.315 71.8139 120.325 71.843 120.347C71.872 120.369 71.8925 120.4 71.9009 120.435C71.9093 120.47 71.9051 120.507 71.889 120.54C71.8729 120.572 71.8459 120.598 71.8127 120.612L69.7557 121.637C69.6774 121.676 69.6136 121.74 69.5732 121.818C69.5328 121.896 69.5179 121.986 69.5306 122.074L70.3031 126.947C70.3167 127.035 70.3617 127.116 70.4297 127.174C70.4977 127.233 70.5843 127.265 70.6738 127.265L73.7285 127.269C73.9992 127.272 74.0213 127.348 73.7947 127.499C72.9648 128.052 72.1246 128.587 71.2742 129.105C70.7842 129.401 70.5944 129.745 70.8592 130.275C70.8729 130.303 70.8923 130.327 70.916 130.346C70.9398 130.366 70.9674 130.38 70.997 130.388C71.0267 130.396 71.0576 130.397 71.0879 130.392C71.1182 130.387 71.1471 130.376 71.1726 130.359L75.8164 127.247C75.8917 127.197 75.949 127.124 75.9801 127.04C76.0112 126.955 76.0144 126.863 75.9893 126.776C75.9642 126.689 75.912 126.613 75.8404 126.558C75.7688 126.503 75.6815 126.472 75.5913 126.47L71.3492 126.351C71.2846 126.35 71.2225 126.326 71.1733 126.283C71.1242 126.24 71.0912 126.182 71.0799 126.117L70.5061 122.533C70.4855 122.397 70.537 122.299 70.6606 122.237L74.2538 120.436C74.3439 120.391 74.4165 120.317 74.46 120.226C74.5036 120.135 74.5158 120.032 74.4945 119.934C74.4733 119.835 74.4199 119.746 74.3428 119.681C74.2656 119.617 74.1691 119.579 74.0684 119.575L70.228 119.421C70.0632 119.412 69.9676 119.326 69.9411 119.165L69.4335 116.145C69.4222 116.077 69.4328 116.007 69.4638 115.946C69.4948 115.885 69.5445 115.836 69.6056 115.805L73.1855 114.009C73.2623 113.969 73.3238 113.906 73.3608 113.828C73.3977 113.75 73.4079 113.662 73.3898 113.577C73.3717 113.493 73.3264 113.417 73.2607 113.361C73.1951 113.305 73.1128 113.272 73.0266 113.267L69.1377 113.091C68.9847 113.085 68.8964 113.007 68.8728 112.857L68.3608 109.63C68.3504 109.566 68.3606 109.501 68.39 109.444C68.4194 109.387 68.4664 109.341 68.5241 109.312L71.645 107.794C71.7462 107.745 71.828 107.663 71.8767 107.562C71.9255 107.461 71.9383 107.346 71.9131 107.237C71.8879 107.127 71.8263 107.03 71.7382 106.96C71.6501 106.89 71.541 106.853 71.4287 106.853H68.1004C68.0396 106.853 67.9809 106.832 67.9348 106.793C67.8887 106.754 67.8582 106.7 67.8488 106.641L67.3102 103.344C67.2749 103.132 67.3529 102.978 67.5442 102.881L70.3958 101.455C70.4859 101.41 70.5584 101.336 70.602 101.245C70.6456 101.154 70.6577 101.051 70.6365 100.953C70.6153 100.854 70.5619 100.765 70.4848 100.7C70.4076 100.635 70.3111 100.598 70.2103 100.594L67.1601 100.484C66.96 100.478 66.8423 100.375 66.807 100.175L66.2243 96.8331C66.1978 96.6712 66.2582 96.555 66.4053 96.4844L69.2436 95.0851C69.3257 95.0442 69.3919 94.9773 69.4319 94.8948C69.4719 94.8124 69.4835 94.719 69.4648 94.6293C69.4461 94.5395 69.3983 94.4585 69.3288 94.3988C69.2592 94.3391 69.1718 94.3041 69.0803 94.2993L65.9815 94.136C65.8462 94.1301 65.7682 94.061 65.7476 93.9285L65.1826 90.4148C65.1561 90.2559 65.2149 90.1397 65.3591 90.0661L67.8046 88.8478C67.907 88.795 67.9889 88.7095 68.0371 88.6049C68.0854 88.5003 68.0972 88.3825 68.0708 88.2704C68.0444 88.1582 67.9813 88.0581 67.8915 87.986C67.8017 87.9138 67.6903 87.8738 67.5751 87.8722H64.9751C64.8015 87.8722 64.7014 87.7884 64.6749 87.6206L64.1011 84.0098C64.0893 83.937 64.1008 83.8623 64.1341 83.7964C64.1675 83.7306 64.2208 83.677 64.2865 83.6434L66.7408 82.3677C66.7913 82.3414 66.8347 82.3032 66.8672 82.2565C66.8998 82.2098 66.9204 82.156 66.9274 82.0998C66.9344 82.0436 66.9274 81.9868 66.9072 81.9342C66.887 81.8816 66.8541 81.835 66.8114 81.7983C66.3391 81.3789 64.8692 81.6394 63.9113 81.5467C63.7435 81.529 63.6464 81.4363 63.6199 81.2686L63.0284 77.5253C63.0182 77.4545 63.0306 77.3821 63.0639 77.3187C63.0972 77.2553 63.1497 77.204 63.2138 77.1722L65.39 76.1084C65.4728 76.0694 65.5402 76.0038 65.5814 75.9221C65.6227 75.8404 65.6354 75.7472 65.6177 75.6574C65.5999 75.5677 65.5527 75.4864 65.4834 75.4265C65.4142 75.3667 65.327 75.3317 65.2355 75.3271L62.8784 75.1902C62.7136 75.1814 62.6164 75.0946 62.587 74.9298L61.947 71.1159C61.9205 70.9629 61.9779 70.8511 62.1191 70.7804L64.1452 69.7563C64.2248 69.7164 64.289 69.6514 64.328 69.5713C64.367 69.4913 64.3787 69.4006 64.3611 69.3133C64.3436 69.226 64.2978 69.1469 64.2309 69.0882C64.1639 69.0295 64.0796 68.9944 63.9907 68.9883L61.8631 68.847C61.782 68.8418 61.705 68.8089 61.6448 68.7535C61.5846 68.6981 61.5448 68.6237 61.532 68.5424L60.9008 64.6977C60.8882 64.6197 60.9012 64.5397 60.9378 64.4697C60.9744 64.3997 61.0326 64.3434 61.1038 64.3092L62.512 63.6338C62.6394 63.5717 62.7854 63.5622 62.9181 63.6073C98.682 75.0887 129.056 98.4619 149.547 129.926C149.862 130.409 150.268 130.718 150.765 130.853C150.802 130.862 150.84 130.86 150.875 130.847C150.91 130.835 150.941 130.812 150.963 130.781C150.985 130.751 150.998 130.715 151 130.678C151.002 130.64 150.992 130.603 150.973 130.571C129.864 97.3849 98.1479 73.4334 60.6712 61.9035C60.5182 61.8564 60.4285 61.7549 60.402 61.5989L59.8281 58.2882C59.7987 58.1234 59.8605 58.0028 60.0135 57.9263L61.4702 57.1935C61.5649 57.1476 61.6409 57.0709 61.6857 56.976C61.7305 56.8811 61.7415 56.7735 61.7169 56.671C61.6923 56.5684 61.6335 56.477 61.5502 56.4115C61.4669 56.346 61.364 56.3105 61.2583 56.3107H59.7752C59.6015 56.3107 59.5 56.2239 59.4706 56.0502L58.7555 51.8611C58.729 51.7022 58.7879 51.586 58.9321 51.5124L60.2916 50.8326C60.3708 50.792 60.4348 50.727 60.4742 50.6473C60.5136 50.5675 60.5264 50.4772 60.5105 50.3896C60.4947 50.3021 60.4512 50.2219 60.3863 50.161C60.3215 50.1001 60.2387 50.0616 60.1504 50.0513L58.7246 49.9057C58.5333 49.8851 58.4215 49.7791 58.3891 49.5878L57.674 45.3237C57.6635 45.2643 57.673 45.203 57.701 45.1496C57.7289 45.0961 57.7737 45.0533 57.8285 45.028L58.963 44.5027C59.0521 44.4621 59.1251 44.3928 59.1701 44.3058C59.2152 44.2189 59.2297 44.1193 59.2114 44.0231C59.1931 43.9268 59.1429 43.8396 59.0691 43.7753C58.9952 43.7109 58.9019 43.6733 58.804 43.6684L57.5946 43.5977C57.4857 43.5919 57.418 43.536 57.3915 43.43C56.8 40.908 56.541 38.3551 56.6146 35.7714C56.6205 35.6066 56.6999 35.4947 56.853 35.4359L58.1772 34.9415C58.2713 34.9072 58.3524 34.8451 58.4101 34.7634C58.4677 34.6817 58.499 34.5842 58.5 34.4839C58.5009 34.3835 58.4715 34.2849 58.4154 34.2011C58.3594 34.1173 58.2794 34.0523 58.1861 34.0145L56.8662 33.4892C56.7944 33.4602 56.733 33.4107 56.6897 33.347C56.6464 33.2832 56.6234 33.2083 56.6234 33.1317L56.619 30.514C56.6161 30.3375 56.5278 30.2315 56.3542 30.1962L56.1202 30.1477C55.8877 30.1035 55.77 30.1992 55.7671 30.4346L55.7229 33.1317C55.72 33.2847 55.6494 33.3921 55.511 33.4539L54.2177 34.0454C54.1274 34.0863 54.0516 34.1533 53.9999 34.2379C53.9482 34.3224 53.9231 34.4205 53.9279 34.5195C53.9326 34.6184 53.967 34.7137 54.0266 34.7929C54.0861 34.8721 54.1681 34.9315 54.2618 34.9636L55.5022 35.3962C55.5683 35.4195 55.6256 35.4624 55.6666 35.5192C55.7076 35.576 55.7304 35.6439 55.7318 35.714C55.82 38.2742 55.5905 40.8065 55.0431 43.3108C55.0049 43.4962 54.8916 43.5963 54.7032 43.611C54.4384 43.6345 54.1735 43.6419 53.9087 43.6331C53.6909 43.6272 53.5276 43.6654 53.4187 43.7478C53.251 43.8773 53.1774 44.0436 53.198 44.2466C53.2098 44.3673 53.2716 44.4526 53.3834 44.5027L54.5002 44.9882C54.572 45.0195 54.6313 45.0738 54.6689 45.1425C54.7064 45.2113 54.7201 45.2905 54.7077 45.3678L53.997 49.6187C53.9705 49.7806 53.8763 49.8718 53.7145 49.8924L51.9797 50.1175C51.9225 50.1254 51.8692 50.1511 51.8275 50.1911C51.7858 50.231 51.7578 50.2831 51.7475 50.3399C51.7373 50.3967 51.7452 50.4554 51.7703 50.5074C51.7953 50.5594 51.8362 50.6022 51.887 50.6296L53.4629 51.4815C53.5212 51.5143 53.5681 51.5636 53.5973 51.6228C53.6265 51.682 53.6366 51.7482 53.6262 51.8126L52.9464 56.0193C52.9328 56.1007 52.8912 56.1746 52.829 56.2279C52.7668 56.2813 52.6879 56.3106 52.6065 56.3107H51.0836C50.9892 56.3123 50.898 56.3451 50.8242 56.404C50.7504 56.4628 50.6981 56.5444 50.6755 56.636C50.6528 56.7276 50.6611 56.8242 50.6989 56.9106C50.7368 56.9971 50.8022 57.0686 50.885 57.1141L52.324 57.8733C52.5006 57.9675 52.5741 58.1146 52.5447 58.3147L52.3946 59.3609C52.3885 59.4026 52.3737 59.4426 52.3511 59.4783C52.3286 59.514 52.2987 59.5446 52.2634 59.5683C52.2282 59.5919 52.1883 59.6081 52.1463 59.6157C52.1043 59.6233 52.0611 59.6222 52.0194 59.6125C45.5276 58.041 38.9637 56.8875 32.3276 56.1518C32.1099 56.1253 31.9833 56.0031 31.948 55.7854L31.3035 51.7817C31.28 51.6434 31.333 51.5433 31.4624 51.4815L32.8397 50.8194C32.9196 50.7818 32.9849 50.7188 33.0255 50.6403C33.066 50.5618 33.0796 50.4721 33.064 50.3851C33.0484 50.2981 33.0045 50.2187 32.9393 50.1592C32.874 50.0996 32.7909 50.0633 32.7028 50.0557L31.3079 49.9233C31.211 49.9147 31.1197 49.874 31.0486 49.8076C30.9774 49.7412 30.9304 49.653 30.9151 49.5569L30.2309 45.3767C30.2207 45.3166 30.2302 45.2547 30.258 45.1999C30.2858 45.1451 30.3304 45.1004 30.3854 45.0721L31.4006 44.5645C31.5008 44.5142 31.5811 44.4317 31.6287 44.3302C31.6762 44.2288 31.6882 44.1142 31.6627 44.0051C31.6372 43.896 31.5757 43.7987 31.4881 43.7288C31.4006 43.6589 31.292 43.6205 31.1799 43.6198H30.2397C30.1667 43.6198 30.0959 43.5954 30.039 43.5505C29.982 43.5056 29.9423 43.4429 29.9263 43.3726C29.3583 40.8977 29.0905 38.3919 29.1229 35.8552C29.1242 35.7857 29.1457 35.718 29.1849 35.66C29.224 35.6021 29.2791 35.5565 29.3436 35.5286L30.8003 34.9106C30.888 34.8725 30.9627 34.8095 31.0151 34.7295C31.0675 34.6494 31.0952 34.5559 31.0947 34.4606C31.0943 34.3653 31.0657 34.2725 31.0125 34.194C30.9593 34.1154 30.884 34.0545 30.7959 34.0189L29.3966 33.4539C29.3304 33.4258 29.2733 33.3795 29.232 33.3202C29.1906 33.2609 29.1666 33.191 29.1626 33.1184C29.1244 32.3062 29.117 31.4999 29.1406 30.6994C29.1435 30.517 29.1126 30.3846 29.0479 30.3022C28.9419 30.1727 28.783 30.1256 28.5711 30.1609C28.4846 30.1755 28.4061 30.2204 28.3495 30.2875C28.2929 30.3545 28.262 30.4395 28.2621 30.5273L28.2577 33.0125C28.2564 33.0953 28.2327 33.1761 28.1891 33.2461C28.1456 33.3161 28.0838 33.3727 28.0105 33.4098L26.3773 34.2176C26.3311 34.2416 26.2925 34.278 26.2657 34.3226C26.2389 34.3673 26.225 34.4185 26.2254 34.4705C26.2259 34.5226 26.2407 34.5735 26.2683 34.6177C26.2959 34.6618 26.3351 34.6975 26.3817 34.7208L27.9355 35.4712C28.0275 35.5164 28.1056 35.5853 28.1615 35.6708C28.2175 35.7562 28.2492 35.855 28.2533 35.9568C28.3504 38.4434 28.115 40.8992 27.547 43.3241C27.5 43.5212 27.3749 43.6198 27.1718 43.6198H26.289C26.1753 43.6184 26.0645 43.6559 25.9751 43.7261C25.8856 43.7962 25.8228 43.8949 25.797 44.0056C25.7713 44.1163 25.7841 44.2326 25.8335 44.335C25.8828 44.4374 25.9656 44.52 26.0683 44.5689L27.0968 45.0765C27.2116 45.1324 27.2586 45.2236 27.238 45.3502L26.5494 49.6055C26.5229 49.7821 26.4185 49.8806 26.236 49.9012L24.8985 50.0557C24.8049 50.0662 24.7173 50.1069 24.649 50.1716C24.5806 50.2364 24.5353 50.3217 24.5198 50.4145C24.5043 50.5074 24.5196 50.6028 24.5632 50.6862C24.6069 50.7696 24.6765 50.8366 24.7617 50.8768L25.9844 51.4462C26.0519 51.478 26.107 51.5311 26.1413 51.5973C26.1756 51.6635 26.1872 51.7392 26.1742 51.8126L25.5915 55.3042C25.568 55.4514 25.4812 55.5205 25.3311 55.5117C17.2119 54.9496 9.10154 54.9923 1 55.6397" stroke="white" stroke-width="2"/>
<path d="M51.9624 3.44973C51.9629 3.14945 51.9043 2.852 51.7899 2.57438C51.6754 2.29676 51.5074 2.04439 51.2955 1.83169C51.0835 1.61899 50.8317 1.45012 50.5545 1.33473C50.2773 1.21933 49.9801 1.15967 49.6798 1.15915L45.1508 1.15125C44.8505 1.15073 44.5531 1.20935 44.2755 1.32378C43.9979 1.43821 43.7455 1.6062 43.5328 1.81816C43.3201 2.03011 43.1512 2.28189 43.0359 2.55911C42.9205 2.83633 42.8608 3.13356 42.8603 3.43384L42.7889 44.3005C42.7884 44.6008 42.847 44.8982 42.9615 45.1758C43.0759 45.4534 43.2439 45.7058 43.4558 45.9185C43.6678 46.1312 43.9196 46.3001 44.1968 46.4155C44.474 46.5309 44.7713 46.5905 45.0715 46.5911L49.6005 46.599C49.9008 46.5995 50.1982 46.5409 50.4758 46.4264C50.7535 46.312 51.0058 46.144 51.2185 45.932C51.4312 45.7201 51.6001 45.4683 51.7155 45.1911C51.8309 44.9139 51.8905 44.6166 51.891 44.3164L51.9624 3.44973Z" stroke="white" stroke-width="2"/>
<path d="M70.3163 19.5668C70.2898 14.2668 70.2883 8.96832 70.3119 3.67127C70.3295 0.276749 66.1758 1.11986 63.4919 1.26995C61.9882 1.35529 61.2363 2.15573 61.2363 3.67127C61.2422 17.3553 61.2495 30.9467 61.2583 44.4453C61.2594 45.0113 61.4833 45.5541 61.8814 45.9564C62.2796 46.3586 62.82 46.5881 63.386 46.595C65.6328 46.6215 70.3384 47.5706 70.3251 43.9465C70.3075 38.5523 70.3001 33.1493 70.303 27.7375C70.303 27.5845 70.3781 27.508 70.5282 27.508H87.9555C88.1055 27.508 88.1806 27.583 88.1806 27.7331C88.1806 32.8065 88.1835 37.8799 88.1894 42.9533C88.1938 45.0589 88.4101 46.5465 90.8291 46.5818C93.1642 46.6171 97.1988 47.3852 97.2032 44.1716C97.2327 30.6435 97.2635 17.1155 97.2959 3.5874C97.3047 0.470975 92.97 0.996265 90.5201 1.19932C88.9545 1.3288 88.1732 2.19104 88.1762 3.78604C88.185 9.03012 88.185 14.2889 88.1762 19.5624C88.1762 19.7096 88.1026 19.7831 87.9555 19.7831H70.5326C70.3884 19.7831 70.3163 19.711 70.3163 19.5668Z" stroke="white" stroke-width="2"/>
<path d="M115.363 20.8734C115.263 15.1408 115.204 9.40679 115.187 3.67127C115.181 2.07921 114.345 1.24492 112.679 1.16841C110.053 1.05364 106.513 0.479794 106.508 3.78162C106.494 16.9683 106.494 30.1565 106.508 43.3462C106.513 47.2439 109.073 46.6833 112.194 46.5994C113.937 46.5509 115.173 46.2419 115.187 44.2776C115.21 40.8698 115.221 37.44 115.218 33.988C115.218 33.8236 115.281 33.6643 115.394 33.5422L122.563 25.8173C122.675 25.6967 122.773 25.7055 122.859 25.8438C126.664 31.9354 130.448 38.0388 134.212 44.154C135.391 46.0697 136.207 46.6083 138.591 46.6038C140.336 46.6038 142.112 46.595 143.919 46.5774C144.165 46.5762 144.403 46.4857 144.588 46.3226C144.774 46.1594 144.893 45.9347 144.925 45.6901C144.969 45.3281 144.824 44.6837 144.599 44.3261C139.29 35.9715 133.987 27.6198 128.69 19.2711C128.616 19.1592 128.624 19.0533 128.712 18.9533L142.974 2.83698C143.105 2.68924 143.191 2.50672 143.221 2.31144C143.25 2.11615 143.223 1.91642 143.142 1.73633C143.061 1.55625 142.929 1.40348 142.763 1.29645C142.597 1.18941 142.404 1.13269 142.206 1.1331C139.006 1.1331 134.649 0.28557 132.287 2.86788C126.743 8.92417 121.165 14.951 115.553 20.9485C115.429 21.0809 115.366 21.0559 115.363 20.8734Z" stroke="white" stroke-width="2"/>
<path d="M43.862 114.808H41.0457C41.0211 114.808 40.9975 114.818 40.9802 114.835C40.9628 114.852 40.953 114.876 40.953 114.9V114.962C40.953 116.422 41.0795 117.822 41.3047 118.855C41.5298 119.887 41.8352 120.467 42.1537 120.467H42.754C43.0724 120.467 43.3778 119.887 43.603 118.855C43.8282 117.822 43.9547 116.422 43.9547 114.962V114.9C43.9547 114.888 43.9523 114.876 43.9476 114.865C43.9429 114.854 43.9361 114.844 43.9275 114.835C43.9189 114.826 43.9087 114.819 43.8974 114.815C43.8862 114.81 43.8741 114.808 43.862 114.808Z" stroke="white" stroke-width="2"/>
<path d="M41.7873 95.041L38.9357 96.4933C38.877 96.5224 38.829 96.5698 38.7989 96.6285C38.7687 96.6872 38.7579 96.7543 38.768 96.8199L39.355 100.263C39.3685 100.341 39.4087 100.411 39.4685 100.462C39.5282 100.513 39.6037 100.541 39.6817 100.541L45.2877 100.523C45.3663 100.523 45.4424 100.495 45.5022 100.443C45.5621 100.391 45.6018 100.32 45.6144 100.241L46.1529 96.8288C46.1632 96.7698 46.1542 96.7089 46.1272 96.655C46.1002 96.601 46.0567 96.5568 46.0028 96.5286L43.1248 95.0675C43.0459 95.0258 42.9827 94.9595 42.9448 94.8787C42.907 94.7979 42.8965 94.707 42.9149 94.6196C42.9334 94.5323 42.9798 94.4534 43.0472 94.3948C43.1145 94.3363 43.1991 94.3012 43.2881 94.295L46.2235 94.1361C46.3311 94.1314 46.4337 94.0897 46.5141 94.0182C46.5945 93.9466 46.6478 93.8495 46.665 93.7432L47.2344 90.3796C47.2609 90.2178 47.2006 90.1015 47.0534 90.0309L44.4844 88.764C44.3895 88.7162 44.3132 88.6376 44.268 88.5411C44.2227 88.4446 44.2112 88.3359 44.2353 88.2326C44.2593 88.1293 44.3175 88.0375 44.4004 87.9721C44.4833 87.9067 44.586 87.8715 44.6918 87.8724H47.4419C47.5802 87.8724 47.6596 87.8047 47.6802 87.6693L48.3026 83.9525C48.3141 83.8849 48.303 83.8153 48.2712 83.754C48.2394 83.6928 48.1885 83.6432 48.1261 83.6126L45.7777 82.4561C45.6858 82.4101 45.6119 82.3346 45.568 82.2416C45.5241 82.1486 45.5127 82.0436 45.5356 81.9433C45.5585 81.8431 45.6143 81.7534 45.6943 81.6887C45.7742 81.624 45.8735 81.588 45.9764 81.5865L48.4925 81.5821C48.5542 81.5809 48.6135 81.5582 48.6603 81.5179C48.707 81.4776 48.7382 81.4223 48.7485 81.3614L49.3709 77.5387C49.3823 77.4643 49.3696 77.3881 49.3346 77.3214C49.2997 77.2547 49.2443 77.2009 49.1767 77.1679L47.1373 76.1791C47.049 76.1351 46.9777 76.0633 46.9342 75.9748C46.8907 75.8863 46.8774 75.786 46.8965 75.6892C46.9155 75.5925 46.9658 75.5046 47.0396 75.4392C47.1134 75.3738 47.2067 75.3345 47.305 75.3272L49.521 75.1948C49.6946 75.183 49.7946 75.0918 49.8211 74.9211L50.4435 71.0984C50.4671 70.963 50.417 70.8644 50.2934 70.8026L48.2938 69.805C48.2059 69.7597 48.135 69.6867 48.0922 69.5972C48.0495 69.5077 48.0372 69.4069 48.0573 69.3102C48.0775 69.2136 48.1289 69.1267 48.2035 69.0629C48.2782 68.9991 48.372 68.962 48.4704 68.9575L50.5804 68.8648C50.7334 68.856 50.8217 68.778 50.8452 68.6308L51.4765 64.6934C51.4865 64.6293 51.4761 64.5637 51.4468 64.5059C51.4175 64.4481 51.3707 64.4009 51.3131 64.3711L49.4989 63.4397C49.4106 63.3945 49.3401 63.3208 49.2988 63.2306C49.2575 63.1404 49.2478 63.0389 49.2713 62.9425C49.2947 62.8461 49.35 62.7604 49.4281 62.6992C49.5063 62.6381 49.6027 62.605 49.7019 62.6054L51.6133 62.5966C51.6899 62.5962 51.7636 62.5681 51.8205 62.5176C51.8775 62.4672 51.9137 62.3979 51.9223 62.3229L52.1165 60.7559C52.1312 60.6293 52.0768 60.5514 51.9532 60.5219C45.1995 58.8916 39.3241 57.8131 34.3273 57.2863C33.7534 57.2275 33.1369 57.4747 32.4777 58.0279C32.3924 58.0985 32.3585 58.1898 32.3762 58.3016L33.056 62.3362C33.0685 62.4101 33.1063 62.4773 33.1629 62.5257C33.2194 62.5742 33.291 62.6009 33.365 62.601H35.0997C35.2046 62.6 35.3064 62.6346 35.3887 62.6992C35.4709 62.7638 35.5287 62.8546 35.5528 62.9569C35.5768 63.0591 35.5656 63.1669 35.5211 63.2625C35.4765 63.3582 35.4011 63.4362 35.3072 63.4839L33.6431 64.327C33.5777 64.3606 33.5246 64.4136 33.4913 64.4787C33.458 64.5437 33.4462 64.6173 33.4577 64.6889L34.0757 68.6573C34.0992 68.7897 34.1772 68.8589 34.3096 68.8648L36.4328 68.9531C36.5314 68.9565 36.626 68.9928 36.7016 69.0563C36.7771 69.1198 36.8292 69.2067 36.8495 69.3033C36.8698 69.3998 36.8572 69.5004 36.8137 69.5889C36.7702 69.6775 36.6983 69.7489 36.6094 69.7918L34.857 70.6702C34.7343 70.7316 34.6346 70.8309 34.5726 70.9533C34.5106 71.0757 34.4896 71.2147 34.5127 71.35L35.1262 74.8858C35.1586 75.08 35.2734 75.183 35.4705 75.1948L37.66 75.3272C37.76 75.333 37.8553 75.3717 37.9311 75.4372C38.0069 75.5028 38.0589 75.5916 38.079 75.6897C38.0992 75.7879 38.0863 75.8899 38.0425 75.98C37.9986 76.0701 37.9262 76.1432 37.8366 76.188L35.7398 77.2341C35.6748 77.2671 35.6222 77.3201 35.5896 77.3852C35.557 77.4504 35.5462 77.5243 35.5588 77.5961L36.2165 81.3349C36.229 81.4043 36.2654 81.4671 36.3195 81.5123C36.3736 81.5575 36.4418 81.5822 36.5123 81.5821H38.9666C39.0725 81.5811 39.1757 81.6161 39.2591 81.6814C39.3426 81.7466 39.4015 81.8383 39.4261 81.9413C39.4507 82.0444 39.4396 82.1527 39.3946 82.2486C39.3496 82.3446 39.2734 82.4224 39.1785 82.4694L36.8345 83.6391C36.6815 83.7156 36.6182 83.8392 36.6447 84.0099L37.2274 87.581C37.2598 87.7723 37.3745 87.8694 37.5717 87.8724L40.2776 87.8768C40.3842 87.877 40.4875 87.9133 40.5708 87.9797C40.6542 88.0461 40.7126 88.1387 40.7366 88.2426C40.7607 88.3464 40.7489 88.4553 40.7032 88.5515C40.6576 88.6478 40.5807 88.7258 40.4851 88.7729L37.9072 90.0441C37.7483 90.1207 37.6835 90.2457 37.713 90.4194L38.2868 93.8801C38.3133 94.039 38.4075 94.1214 38.5693 94.1273L41.6284 94.2906C41.7155 94.2954 41.7987 94.3288 41.865 94.3857C41.9313 94.4425 41.977 94.5196 41.9951 94.605C42.0132 94.6904 42.0026 94.7794 41.9651 94.8582C41.9275 94.937 41.865 95.0013 41.7873 95.041Z" stroke="white" stroke-width="2"/>
<path d="M44.992 103.287C45.0016 103.23 44.9925 103.172 44.9663 103.121C44.94 103.07 44.8979 103.029 44.8463 103.004L42.6127 101.896C42.5758 101.878 42.535 101.868 42.4936 101.868C42.4522 101.868 42.4113 101.878 42.3744 101.896L40.0746 103.035C40.0238 103.061 39.9827 103.102 39.9572 103.153C39.9318 103.204 39.9234 103.262 39.9333 103.318L40.516 106.527C40.5273 106.588 40.5596 106.642 40.6071 106.682C40.6547 106.721 40.7146 106.743 40.7764 106.743H44.1842C44.2467 106.743 44.3071 106.721 44.3547 106.68C44.4024 106.64 44.4342 106.584 44.4446 106.522L44.992 103.287Z" stroke="white" stroke-width="2"/>
<path d="M43.6236 109.078L41.3547 109.06C41.3039 109.06 41.2552 109.08 41.2189 109.116C41.1826 109.151 41.1616 109.199 41.1605 109.25L41.1516 109.886C41.1479 110.3 41.1642 110.711 41.1995 111.094C41.2348 111.477 41.2884 111.826 41.3573 112.119C41.4262 112.413 41.509 112.646 41.6009 112.805C41.6929 112.964 41.7922 113.046 41.8932 113.046L43.0144 113.055C43.2179 113.056 43.4158 112.725 43.5648 112.136C43.7137 111.547 43.8016 110.747 43.809 109.912L43.8178 109.277C43.8184 109.251 43.8138 109.225 43.8043 109.201C43.7948 109.177 43.7806 109.155 43.7625 109.137C43.7444 109.118 43.7228 109.103 43.699 109.093C43.6751 109.083 43.6495 109.078 43.6236 109.078Z" stroke="white" stroke-width="2"/>
<path d="M42.6966 115.823L42.2287 115.814C42.2144 115.814 42.2002 115.816 42.1868 115.821C42.1734 115.826 42.1612 115.834 42.1509 115.844C42.1406 115.854 42.1324 115.865 42.1268 115.879C42.1212 115.892 42.1183 115.906 42.1183 115.92V115.991C42.1125 116.464 42.1414 116.917 42.1985 117.253C42.2556 117.588 42.3363 117.777 42.4229 117.779H42.4494C42.4923 117.779 42.5354 117.734 42.5761 117.645C42.6169 117.556 42.6545 117.425 42.6869 117.26C42.7193 117.095 42.7458 116.898 42.7649 116.682C42.784 116.466 42.7953 116.234 42.7981 116V115.929C42.7982 115.902 42.7876 115.875 42.7687 115.856C42.7498 115.836 42.7239 115.824 42.6966 115.823Z" stroke="white" stroke-width="2"/>
<path d="M49.6798 1.15911L45.1508 1.15121C43.888 1.149 42.8625 2.17094 42.8603 3.43377L42.7889 44.3004C42.7867 45.5633 43.8087 46.5888 45.0715 46.591L49.6005 46.5989C50.8633 46.6011 51.8888 45.5792 51.891 44.3163L51.9623 3.44966C51.9646 2.18683 50.9426 1.16132 49.6798 1.15911Z" fill="white"/>
<path d="M70.5326 19.7831H87.9555C88.1026 19.7831 88.1762 19.7096 88.1762 19.5624C88.185 14.2889 88.185 9.03012 88.1762 3.78604C88.1732 2.19104 88.9545 1.3288 90.5201 1.19932C92.97 0.996265 97.3047 0.470975 97.2959 3.5874C97.2635 17.1155 97.2327 30.6435 97.2032 44.1716C97.1988 47.3852 93.1642 46.6171 90.8291 46.5818C88.4101 46.5465 88.1938 45.0589 88.1894 42.9533C88.1835 37.8799 88.1806 32.8065 88.1806 27.7331C88.1806 27.583 88.1055 27.508 87.9555 27.508H70.5282C70.3781 27.508 70.303 27.5845 70.303 27.7375C70.3001 33.1493 70.3075 38.5523 70.3251 43.9465C70.3384 47.5706 65.6328 46.6215 63.386 46.595C62.82 46.5881 62.2796 46.3586 61.8814 45.9564C61.4833 45.5541 61.2594 45.0113 61.2583 44.4453C61.2495 30.9467 61.2422 17.3553 61.2363 3.67127C61.2363 2.15573 61.9882 1.35529 63.4919 1.26995C66.1758 1.11986 70.3295 0.276749 70.3119 3.67127C70.2883 8.96832 70.2898 14.2668 70.3163 19.5668C70.3163 19.711 70.3884 19.7831 70.5326 19.7831Z" fill="white"/>
<path d="M115.553 20.9485C121.165 14.951 126.743 8.92417 132.287 2.86788C134.649 0.28557 139.006 1.1331 142.206 1.1331C142.404 1.13269 142.597 1.18941 142.763 1.29645C142.929 1.40348 143.061 1.55625 143.142 1.73633C143.223 1.91642 143.25 2.11615 143.221 2.31144C143.191 2.50672 143.105 2.68924 142.974 2.83698L128.712 18.9533C128.624 19.0533 128.616 19.1592 128.69 19.2711C133.987 27.6198 139.29 35.9715 144.599 44.3261C144.824 44.6837 144.969 45.3281 144.925 45.6901C144.893 45.9347 144.774 46.1594 144.588 46.3226C144.403 46.4857 144.165 46.5762 143.919 46.5774C142.112 46.595 140.336 46.6038 138.591 46.6038C136.207 46.6083 135.391 46.0697 134.212 44.154C130.448 38.0388 126.664 31.9354 122.859 25.8438C122.773 25.7055 122.675 25.6967 122.563 25.8173L115.394 33.5422C115.281 33.6643 115.218 33.8236 115.218 33.988C115.221 37.4399 115.21 40.8698 115.187 44.2776C115.173 46.2419 113.937 46.5509 112.194 46.5994C109.073 46.6833 106.513 47.2439 106.508 43.3462C106.494 30.1565 106.494 16.9683 106.508 3.78162C106.513 0.479794 110.053 1.05364 112.679 1.16841C114.345 1.24492 115.181 2.07921 115.187 3.67127C115.204 9.40679 115.263 15.1408 115.363 20.8734C115.366 21.0559 115.429 21.0809 115.553 20.9485Z" fill="white"/>
<path d="M1 56.5181V55.6397C9.10154 54.9923 17.2119 54.9496 25.3311 55.5117C25.4812 55.5205 25.568 55.4514 25.5915 55.3042L26.1742 51.8126C26.1872 51.7392 26.1756 51.6635 26.1413 51.5973C26.107 51.5311 26.0519 51.478 25.9844 51.4462L24.7617 50.8768C24.6765 50.8365 24.6069 50.7696 24.5632 50.6862C24.5196 50.6028 24.5043 50.5074 24.5198 50.4145C24.5353 50.3217 24.5806 50.2364 24.649 50.1716C24.7173 50.1069 24.8049 50.0662 24.8985 50.0557L26.236 49.9012C26.4185 49.8806 26.5229 49.7821 26.5494 49.6055L27.238 45.3502C27.2586 45.2236 27.2116 45.1324 27.0968 45.0765L26.0683 44.5689C25.9656 44.52 25.8828 44.4374 25.8335 44.335C25.7841 44.2326 25.7713 44.1163 25.797 44.0056C25.8228 43.8949 25.8856 43.7962 25.9751 43.7261C26.0645 43.6559 26.1753 43.6184 26.289 43.6198H27.1718C27.3749 43.6198 27.5 43.5212 27.547 43.3241C28.115 40.8992 28.3504 38.4434 28.2533 35.9568C28.2492 35.855 28.2175 35.7562 28.1615 35.6708C28.1056 35.5853 28.0275 35.5164 27.9355 35.4712L26.3817 34.7208C26.3351 34.6975 26.2959 34.6618 26.2683 34.6177C26.2407 34.5735 26.2259 34.5226 26.2254 34.4705C26.225 34.4185 26.2389 34.3673 26.2657 34.3226C26.2925 34.278 26.3311 34.2416 26.3773 34.2176L28.0105 33.4098C28.0838 33.3727 28.1456 33.3161 28.1891 33.2461C28.2327 33.1761 28.2564 33.0953 28.2577 33.0125L28.2621 30.5273C28.262 30.4395 28.2929 30.3545 28.3495 30.2875C28.4061 30.2204 28.4846 30.1755 28.5711 30.1609C28.783 30.1256 28.9419 30.1727 29.0479 30.3022C29.1126 30.3846 29.1435 30.517 29.1406 30.6994C29.117 31.4999 29.1244 32.3062 29.1626 33.1184C29.1666 33.191 29.1906 33.2609 29.232 33.3202C29.2733 33.3795 29.3304 33.4258 29.3966 33.4539L30.7959 34.0189C30.884 34.0545 30.9593 34.1154 31.0125 34.194C31.0657 34.2725 31.0943 34.3653 31.0947 34.4606C31.0952 34.5559 31.0675 34.6494 31.0151 34.7295C30.9627 34.8095 30.888 34.8726 30.8003 34.9106L29.3436 35.5286C29.2791 35.5565 29.224 35.6021 29.1849 35.66C29.1457 35.718 29.1242 35.7857 29.1229 35.8552C29.0905 38.3919 29.3583 40.8977 29.9263 43.3726C29.9423 43.4429 29.982 43.5056 30.039 43.5505C30.0959 43.5954 30.1667 43.6198 30.2397 43.6198H31.1799C31.292 43.6205 31.4006 43.6589 31.4881 43.7288C31.5757 43.7987 31.6372 43.896 31.6627 44.0051C31.6882 44.1142 31.6762 44.2288 31.6287 44.3302C31.5811 44.4317 31.5008 44.5142 31.4006 44.5645L30.3854 45.0721C30.3304 45.1004 30.2858 45.1451 30.258 45.1999C30.2302 45.2547 30.2207 45.3166 30.2309 45.3767L30.9151 49.5569C30.9304 49.653 30.9774 49.7412 31.0486 49.8076C31.1197 49.874 31.211 49.9147 31.3079 49.9233L32.7028 50.0557C32.7909 50.0633 32.874 50.0996 32.9393 50.1592C33.0046 50.2187 33.0484 50.2981 33.064 50.3851C33.0796 50.4721 33.066 50.5618 33.0255 50.6403C32.9849 50.7188 32.9196 50.7818 32.8397 50.8194L31.4624 51.4815C31.333 51.5433 31.28 51.6434 31.3035 51.7817L31.948 55.7854C31.9833 56.0031 32.1099 56.1253 32.3276 56.1518C38.9637 56.8875 45.5276 58.041 52.0194 59.6125C52.0611 59.6222 52.1043 59.6233 52.1463 59.6157C52.1883 59.6081 52.2282 59.5919 52.2634 59.5683C52.2987 59.5446 52.3286 59.514 52.3511 59.4783C52.3737 59.4426 52.3885 59.4026 52.3946 59.3609L52.5447 58.3147C52.5741 58.1146 52.5006 57.9675 52.324 57.8733L50.885 57.1141C50.8022 57.0686 50.7368 56.9971 50.6989 56.9106C50.6611 56.8242 50.6528 56.7276 50.6755 56.636C50.6981 56.5444 50.7504 56.4628 50.8242 56.404C50.898 56.3451 50.9892 56.3123 51.0836 56.3107H52.6065C52.6879 56.3106 52.7668 56.2813 52.829 56.2279C52.8912 56.1746 52.9328 56.1007 52.9464 56.0193L53.6262 51.8126C53.6366 51.7482 53.6265 51.682 53.5973 51.6228C53.5681 51.5636 53.5212 51.5143 53.4628 51.4815L51.887 50.6296C51.8362 50.6022 51.7953 50.5594 51.7703 50.5074C51.7452 50.4554 51.7373 50.3967 51.7475 50.3399C51.7578 50.2831 51.7858 50.231 51.8275 50.1911C51.8692 50.1511 51.9225 50.1254 51.9797 50.1175L53.7145 49.8924C53.8763 49.8718 53.9705 49.7806 53.997 49.6187L54.7077 45.3678C54.7201 45.2905 54.7064 45.2113 54.6689 45.1425C54.6313 45.0738 54.572 45.0195 54.5002 44.9882L53.3834 44.5027C53.2716 44.4526 53.2098 44.3673 53.198 44.2466C53.1774 44.0436 53.251 43.8773 53.4187 43.7478C53.5276 43.6654 53.6909 43.6272 53.9087 43.6331C54.1735 43.6419 54.4384 43.6345 54.7032 43.611C54.8916 43.5963 55.0049 43.4962 55.0431 43.3108C55.5905 40.8065 55.82 38.2742 55.7318 35.714C55.7304 35.6439 55.7076 35.576 55.6666 35.5192C55.6256 35.4624 55.5683 35.4195 55.5022 35.3962L54.2618 34.9636C54.1681 34.9315 54.0861 34.8721 54.0266 34.7929C53.967 34.7137 53.9326 34.6184 53.9279 34.5195C53.9231 34.4205 53.9482 34.3224 53.9999 34.2379C54.0516 34.1533 54.1274 34.0863 54.2177 34.0454L55.511 33.4539C55.6494 33.3921 55.72 33.2847 55.7229 33.1317L55.7671 30.4346C55.77 30.1992 55.8877 30.1035 56.1202 30.1477L56.3542 30.1962C56.5278 30.2315 56.6161 30.3375 56.619 30.514L56.6234 33.1317C56.6234 33.2083 56.6464 33.2832 56.6897 33.347C56.733 33.4107 56.7944 33.4602 56.8662 33.4892L58.1861 34.0145C58.2794 34.0523 58.3594 34.1173 58.4154 34.2011C58.4715 34.2849 58.5009 34.3835 58.5 34.4839C58.499 34.5842 58.4677 34.6817 58.4101 34.7634C58.3524 34.8451 58.2713 34.9072 58.1772 34.9415L56.853 35.4359C56.6999 35.4947 56.6205 35.6066 56.6146 35.7714C56.541 38.3551 56.8 40.908 57.3915 43.43C57.418 43.536 57.4857 43.5919 57.5946 43.5977L58.804 43.6684C58.9019 43.6733 58.9952 43.7109 59.0691 43.7753C59.1429 43.8396 59.1931 43.9268 59.2114 44.0231C59.2297 44.1193 59.2152 44.2189 59.1701 44.3058C59.1251 44.3928 59.0521 44.4621 58.963 44.5027L57.8285 45.028C57.7737 45.0533 57.7289 45.0961 57.701 45.1496C57.673 45.203 57.6635 45.2643 57.674 45.3237L58.3891 49.5878C58.4215 49.7791 58.5333 49.8851 58.7246 49.9057L60.1504 50.0513C60.2387 50.0616 60.3215 50.1001 60.3863 50.161C60.4512 50.2219 60.4947 50.3021 60.5105 50.3896C60.5264 50.4772 60.5136 50.5675 60.4742 50.6473C60.4348 50.727 60.3708 50.792 60.2916 50.8326L58.9321 51.5124C58.7879 51.586 58.729 51.7022 58.7555 51.8611L59.4706 56.0502C59.5 56.2239 59.6015 56.3107 59.7752 56.3107H61.2583C61.364 56.3105 61.4669 56.346 61.5502 56.4115C61.6335 56.477 61.6923 56.5684 61.7169 56.671C61.7415 56.7735 61.7305 56.8811 61.6857 56.976C61.6409 57.0709 61.5649 57.1476 61.4702 57.1935L60.0135 57.9263C59.8605 58.0028 59.7987 58.1234 59.8281 58.2882L60.402 61.5989C60.4285 61.7549 60.5182 61.8564 60.6712 61.9035C98.1479 73.4334 129.864 97.3849 150.973 130.571C150.992 130.603 151.002 130.64 151 130.678C150.998 130.715 150.985 130.751 150.963 130.781C150.941 130.812 150.91 130.835 150.875 130.847C150.84 130.86 150.802 130.862 150.765 130.853C150.268 130.718 149.862 130.409 149.547 129.926C129.056 98.4619 98.682 75.0887 62.9181 63.6073C62.7854 63.5622 62.6394 63.5717 62.512 63.6338L61.1038 64.3092C61.0326 64.3434 60.9744 64.3997 60.9378 64.4697C60.9012 64.5397 60.8882 64.6197 60.9008 64.6977L61.532 68.5424C61.5448 68.6237 61.5846 68.6981 61.6448 68.7535C61.705 68.8089 61.782 68.8418 61.8631 68.847L63.9907 68.9883C64.0796 68.9944 64.1639 69.0295 64.2309 69.0882C64.2978 69.1469 64.3436 69.226 64.3611 69.3133C64.3787 69.4006 64.3671 69.4913 64.328 69.5713C64.289 69.6514 64.2248 69.7164 64.1452 69.7563L62.1191 70.7804C61.9779 70.8511 61.9205 70.9629 61.947 71.1159L62.587 74.9298C62.6164 75.0946 62.7136 75.1814 62.8783 75.1902L65.2355 75.3271C65.327 75.3317 65.4142 75.3667 65.4834 75.4265C65.5527 75.4864 65.5999 75.5677 65.6177 75.6574C65.6354 75.7472 65.6227 75.8404 65.5814 75.9221C65.5402 76.0038 65.4728 76.0694 65.39 76.1084L63.2138 77.1722C63.1497 77.204 63.0972 77.2553 63.0639 77.3187C63.0306 77.3821 63.0182 77.4545 63.0284 77.5253L63.6199 81.2686C63.6464 81.4363 63.7435 81.529 63.9113 81.5467C64.8692 81.6394 66.3391 81.3789 66.8114 81.7983C66.8541 81.835 66.887 81.8816 66.9072 81.9342C66.9274 81.9868 66.9344 82.0436 66.9274 82.0998C66.9204 82.156 66.8998 82.2098 66.8672 82.2565C66.8347 82.3032 66.7913 82.3414 66.7408 82.3677L64.2865 83.6434C64.2208 83.677 64.1675 83.7306 64.1341 83.7964C64.1008 83.8623 64.0893 83.937 64.1011 84.0098L64.6749 87.6206C64.7014 87.7884 64.8015 87.8722 64.9751 87.8722H67.5751C67.6903 87.8738 67.8017 87.9138 67.8915 87.986C67.9813 88.0581 68.0444 88.1582 68.0708 88.2704C68.0972 88.3825 68.0854 88.5003 68.0371 88.6049C67.9889 88.7095 67.907 88.795 67.8046 88.8478L65.3591 90.0661C65.2149 90.1397 65.1561 90.2559 65.1826 90.4148L65.7476 93.9285C65.7682 94.061 65.8462 94.1301 65.9815 94.136L69.0803 94.2993C69.1718 94.3041 69.2592 94.3391 69.3288 94.3988C69.3983 94.4585 69.4461 94.5395 69.4648 94.6292C69.4835 94.719 69.4719 94.8124 69.4319 94.8948C69.3919 94.9773 69.3257 95.0442 69.2436 95.0851L66.4053 96.4844C66.2582 96.555 66.1978 96.6712 66.2243 96.8331L66.807 100.175C66.8423 100.375 66.96 100.478 67.1601 100.484L70.2104 100.594C70.3111 100.598 70.4076 100.635 70.4848 100.7C70.5619 100.765 70.6153 100.854 70.6365 100.953C70.6577 101.051 70.6456 101.154 70.602 101.245C70.5584 101.336 70.4859 101.41 70.3958 101.455L67.5442 102.881C67.3529 102.978 67.2749 103.132 67.3102 103.344L67.8488 106.641C67.8582 106.7 67.8887 106.754 67.9348 106.793C67.9809 106.832 68.0396 106.853 68.1004 106.853H71.4287C71.541 106.853 71.6501 106.89 71.7382 106.96C71.8263 107.03 71.8879 107.127 71.9131 107.237C71.9383 107.346 71.9255 107.461 71.8767 107.562C71.828 107.663 71.7462 107.745 71.645 107.794L68.5241 109.312C68.4664 109.341 68.4194 109.387 68.39 109.444C68.3606 109.501 68.3504 109.566 68.3608 109.63L68.8728 112.857C68.8964 113.007 68.9847 113.085 69.1377 113.091L73.0266 113.267C73.1128 113.272 73.1951 113.305 73.2607 113.361C73.3264 113.417 73.3717 113.493 73.3898 113.577C73.4079 113.662 73.3977 113.75 73.3608 113.828C73.3238 113.906 73.2623 113.969 73.1855 114.009L69.6056 115.805C69.5445 115.836 69.4948 115.885 69.4638 115.946C69.4328 116.007 69.4222 116.077 69.4334 116.145L69.9411 119.165C69.9676 119.326 70.0632 119.412 70.228 119.421L74.0684 119.575C74.1691 119.579 74.2656 119.617 74.3428 119.681C74.4199 119.746 74.4733 119.835 74.4945 119.934C74.5158 120.032 74.5036 120.135 74.46 120.226C74.4165 120.317 74.3439 120.391 74.2538 120.436L70.6606 122.237C70.537 122.299 70.4855 122.397 70.5061 122.533L71.0799 126.117C71.0912 126.182 71.1242 126.24 71.1733 126.283C71.2225 126.326 71.2846 126.35 71.3492 126.351L75.5913 126.47C75.6815 126.472 75.7688 126.503 75.8404 126.558C75.912 126.613 75.9642 126.689 75.9893 126.776C76.0144 126.863 76.0112 126.955 75.9801 127.04C75.949 127.124 75.8917 127.197 75.8164 127.247L71.1727 130.359C71.1471 130.376 71.1182 130.387 71.0879 130.392C71.0576 130.397 71.0267 130.396 70.997 130.388C70.9674 130.38 70.9398 130.366 70.916 130.346C70.8923 130.327 70.8729 130.303 70.8592 130.275C70.5944 129.745 70.7842 129.401 71.2742 129.105C72.1246 128.587 72.9648 128.052 73.7947 127.499C74.0213 127.348 73.9992 127.272 73.7285 127.269L70.6738 127.265C70.5843 127.265 70.4977 127.233 70.4297 127.174C70.3617 127.116 70.3167 127.035 70.303 126.947L69.5306 122.074C69.5179 121.986 69.5328 121.896 69.5732 121.818C69.6136 121.74 69.6774 121.676 69.7557 121.637L71.8127 120.612C71.8459 120.598 71.8729 120.572 71.889 120.54C71.9051 120.507 71.9093 120.47 71.9009 120.435C71.8925 120.4 71.872 120.369 71.843 120.347C71.8139 120.325 71.7782 120.315 71.7421 120.317H69.5438C69.4542 120.317 69.3676 120.285 69.2996 120.228C69.2316 120.17 69.1867 120.091 69.173 120.003L68.4447 115.585C68.4182 115.42 68.48 115.302 68.6301 115.232L70.5944 114.318C70.6246 114.302 70.6488 114.277 70.6631 114.246C70.6774 114.215 70.6811 114.18 70.6735 114.147C70.6659 114.113 70.6476 114.083 70.6213 114.062C70.595 114.04 70.5623 114.028 70.5282 114.026H68.6345C68.507 114.027 68.3835 113.981 68.2863 113.898C68.1892 113.814 68.1248 113.699 68.1048 113.572L67.4206 109.263C67.4043 109.159 67.4226 109.052 67.4728 108.959C67.523 108.865 67.6023 108.791 67.6987 108.747L69.3452 107.983C69.3711 107.973 69.3924 107.954 69.4056 107.929C69.4187 107.904 69.4227 107.876 69.4169 107.848C69.4111 107.821 69.3959 107.797 69.3739 107.779C69.3519 107.762 69.3246 107.753 69.2966 107.754L67.4338 107.701C67.2455 107.695 67.1351 107.598 67.1028 107.41L66.3038 102.766C66.2897 102.686 66.3019 102.604 66.3385 102.532C66.3751 102.46 66.4341 102.401 66.5068 102.364L67.8267 101.706C67.8635 101.689 67.8933 101.659 67.9113 101.623C67.9292 101.586 67.9343 101.544 67.9256 101.504C67.9169 101.465 67.895 101.429 67.8634 101.403C67.8318 101.377 67.7924 101.363 67.7516 101.362L66.6702 101.318C66.2611 101.3 66.0242 101.09 65.9595 100.687L65.2444 96.3299C65.2179 96.1621 65.2812 96.04 65.4342 95.9635L66.8114 95.2925C66.8374 95.2797 66.8582 95.2585 66.8705 95.2323C66.8829 95.2061 66.8859 95.1765 66.8793 95.1483C66.8726 95.1201 66.8566 95.0951 66.8339 95.0772C66.8111 95.0592 66.783 95.0496 66.754 95.0498L65.2929 95.0409C65.2151 95.0398 65.1401 95.0114 65.0812 94.9605C65.0223 94.9097 64.9831 94.8397 64.9707 94.7628L64.207 90.0352C64.1892 89.9205 64.2076 89.803 64.2599 89.6993C64.3121 89.5956 64.3955 89.5109 64.4984 89.4569L65.4033 88.9846C65.4256 88.9729 65.4435 88.9541 65.4541 88.9312C65.4647 88.9083 65.4675 88.8825 65.4619 88.8579C65.4564 88.8332 65.4429 88.8111 65.4235 88.7949C65.4041 88.7787 65.38 88.7694 65.3547 88.7683L64.2423 88.7286C64.1653 88.7263 64.0913 88.6969 64.0333 88.6453C63.9753 88.5937 63.9368 88.5233 63.9245 88.4461L63.1344 83.5949C63.1079 83.4242 63.1668 83.2888 63.3109 83.1888L64.0393 82.69C64.0578 82.6778 64.0719 82.6603 64.08 82.6397C64.088 82.6192 64.0895 82.5966 64.0842 82.5747C64.079 82.5529 64.0673 82.5329 64.0507 82.5172C64.034 82.5016 64.0131 82.491 63.9907 82.4869L63.386 82.3986C63.0829 82.3515 62.9048 82.1779 62.8519 81.8778L62.0441 77.0354C62.0176 76.8676 62.0823 76.7514 62.2383 76.6866L62.9755 76.3777C63.008 76.3646 63.0348 76.3409 63.0516 76.3105C63.0684 76.2801 63.0742 76.2447 63.0681 76.21C63.0619 76.1753 63.0442 76.1434 63.0178 76.1193C62.9914 76.0953 62.9578 76.0805 62.9225 76.0775L62.1897 76.0333C61.9808 76.0216 61.8601 75.9127 61.8278 75.7067L60.9979 70.7275C60.9655 70.5421 61.0317 70.4052 61.1965 70.3169L61.7704 69.9991C61.7811 69.9936 61.7905 69.9859 61.7982 69.9766C61.8058 69.9673 61.8114 69.9565 61.8147 69.945C61.818 69.9334 61.8189 69.9212 61.8174 69.9093C61.8158 69.8974 61.8119 69.8859 61.8057 69.8755L61.7395 69.7608C61.7071 69.7048 61.6615 69.6901 61.6026 69.7166C61.1642 69.9285 60.8964 69.8387 60.7993 69.4473C60.6256 68.7646 60.349 67.0622 59.9694 64.3401C59.955 64.2305 59.9719 64.1202 60.0179 64.0223L60.1504 63.7309C60.2122 63.6015 60.1886 63.4926 60.0797 63.4043C59.5412 62.9585 59.6383 62.4288 59.5236 61.8549C59.2499 60.4247 58.9276 58.9768 58.9939 57.5157C59.0027 57.2862 58.9409 57.0743 58.8085 56.8801C58.7202 56.7506 58.6628 56.6079 58.6363 56.4519L56.3188 42.4147C56.3128 42.3847 56.2965 42.3574 56.2728 42.3375C56.2491 42.3176 56.2195 42.3065 56.1891 42.306C56.1586 42.3054 56.1294 42.3156 56.1063 42.3347C56.0832 42.3537 56.0678 42.3805 56.0628 42.4103L53.7365 56.655C53.7071 56.8315 53.6173 56.9684 53.4673 57.0655C53.2466 57.2038 53.2289 57.3907 53.4143 57.6261C53.4614 57.6844 53.4956 57.752 53.5147 57.8243C53.5337 57.8966 53.5371 57.972 53.5246 58.0454C53.2451 59.6375 52.9817 61.2178 52.7345 62.7863C52.6874 63.0865 52.53 63.3278 52.2622 63.5102C52.1533 63.5838 52.1401 63.6736 52.2225 63.7795C52.4079 64.009 52.4814 64.2415 52.4432 64.4769C52.1813 66.0602 51.9164 67.6419 51.6486 69.2222C51.6015 69.5077 51.4029 69.699 51.0527 69.7961C50.885 69.8432 50.8629 69.9285 50.9865 70.0521C51.2778 70.3405 51.3779 70.7598 51.2866 71.3101C51.0424 72.7933 50.8026 74.25 50.5671 75.6802C50.549 75.7913 50.491 75.8919 50.4041 75.9634C50.3172 76.0349 50.2073 76.0723 50.0948 76.0687C49.8829 76.0598 49.6755 76.0937 49.4724 76.1702C49.2252 76.2614 49.2252 76.3512 49.4724 76.4394L50.1434 76.6822C50.2934 76.7381 50.3567 76.8456 50.3332 77.0045C50.0948 78.5288 49.8461 80.0444 49.5872 81.5511C49.415 82.5487 48.925 82.4869 48.0643 82.5046C48.045 82.5033 48.026 82.509 48.0107 82.5208C47.9954 82.5325 47.9848 82.5494 47.9811 82.5683C47.9773 82.5872 47.9805 82.6068 47.9901 82.6235C47.9998 82.6402 48.0151 82.6529 48.0334 82.6591L49.0133 83.0696C49.103 83.1088 49.177 83.1767 49.2235 83.2623C49.2699 83.3479 49.2861 83.4464 49.2694 83.5419L48.4395 88.4991C48.427 88.5708 48.3896 88.6358 48.3339 88.6826C48.2782 88.7295 48.2077 88.7551 48.1349 88.7551H47.0313C47.0098 88.7547 46.9886 88.7595 46.9693 88.7691C46.95 88.7787 46.9332 88.7929 46.9203 88.8106C46.9074 88.8282 46.8988 88.8487 46.8951 88.8705C46.8913 88.8923 46.8927 88.9148 46.8989 88.9361C46.9136 88.9861 46.9298 89.0361 46.9475 89.0862C46.9563 89.1185 46.9769 89.1362 47.0093 89.1391C47.845 89.2304 48.1908 89.7733 48.0466 90.768C47.8553 92.1011 47.6376 93.4297 47.3933 94.754C47.358 94.9482 47.2418 95.0453 47.0446 95.0453H45.5791C45.5474 95.0467 45.5168 95.0586 45.4923 95.0791C45.4678 95.0996 45.4508 95.1275 45.4442 95.1582C45.4375 95.189 45.4415 95.2208 45.4556 95.2484C45.4697 95.276 45.493 95.2978 45.5217 95.3102L46.9828 95.937C47.0422 95.9627 47.0914 96.0074 47.1226 96.0642C47.1538 96.1209 47.1652 96.1865 47.1549 96.2504L46.3648 101.128C46.3554 101.186 46.3259 101.238 46.2814 101.276C46.237 101.314 46.1805 101.335 46.122 101.336H44.7978C44.7581 101.337 44.7201 101.352 44.6895 101.377C44.6589 101.402 44.6375 101.437 44.6284 101.475C44.6194 101.514 44.6233 101.554 44.6396 101.591C44.6558 101.627 44.6835 101.657 44.7183 101.675L45.8219 102.227C46.1014 102.368 46.2162 102.595 46.1662 102.907L45.4246 107.414C45.3981 107.576 45.3039 107.679 45.1421 107.723C44.7801 107.82 44.3416 107.858 43.8266 107.838C43.7089 107.832 43.6354 107.885 43.6059 107.997C43.5824 108.094 43.6162 108.161 43.7075 108.2L44.992 108.751C45.0526 108.778 45.1026 108.824 45.1338 108.883C45.165 108.941 45.1757 109.008 45.1641 109.074L44.3431 113.885C44.3306 113.956 44.2937 114.02 44.2388 114.066C44.1839 114.112 44.1146 114.137 44.0429 114.137H40.8956C40.7132 114.137 40.6072 114.047 40.5778 113.868L39.8229 109.166C39.7876 108.952 39.8686 108.8 40.0657 108.712L41.3503 108.138C41.3827 108.125 41.4092 108.1 41.4251 108.069C41.4411 108.039 41.4455 108.003 41.4377 107.968C41.4299 107.934 41.4103 107.903 41.3823 107.881C41.3542 107.859 41.3195 107.847 41.2841 107.847H40.2688C39.8156 107.847 39.5522 107.623 39.4786 107.176L38.715 102.576C38.6944 102.467 38.7341 102.388 38.8342 102.338L40.2511 101.631C40.2843 101.617 40.3113 101.591 40.3274 101.559C40.3435 101.526 40.3478 101.489 40.3394 101.454C40.331 101.419 40.3104 101.388 40.2814 101.366C40.2524 101.344 40.2167 101.334 40.1805 101.336H38.843C38.7719 101.335 38.7031 101.309 38.6489 101.263C38.5948 101.216 38.5587 101.151 38.5472 101.08L37.7968 96.2504C37.7762 96.1209 37.8248 96.0268 37.9425 95.9679L39.2491 95.319C39.2784 95.3054 39.3021 95.2821 39.3163 95.253C39.3305 95.224 39.3343 95.1909 39.3271 95.1594C39.3199 95.1279 39.302 95.0998 39.2766 95.0798C39.2512 95.0599 39.2196 95.0493 39.1873 95.0498L37.8189 95.0409C37.7434 95.0397 37.6706 95.0116 37.6133 94.9616C37.556 94.9116 37.5179 94.8428 37.5055 94.7672L36.7286 89.894C36.6992 89.7174 36.7639 89.5894 36.9228 89.5099L37.9337 89.0023C37.9596 88.9895 37.9805 88.9682 37.9928 88.942C38.0051 88.9158 38.0082 88.8862 38.0015 88.8581C37.9949 88.8299 37.9789 88.8048 37.9561 88.7869C37.9334 88.769 37.9052 88.7593 37.8763 88.7595L36.8257 88.7463C36.7383 88.7447 36.6544 88.7135 36.5883 88.6579C36.5222 88.6023 36.4782 88.5258 36.4637 88.4417L35.6383 83.4889C35.6256 83.4131 35.6371 83.3352 35.6712 83.2663C35.7053 83.1974 35.7602 83.1409 35.8281 83.1049L36.4814 82.765C36.5088 82.751 36.5311 82.7286 36.545 82.7012C36.559 82.6737 36.5638 82.6425 36.5589 82.6121C36.554 82.5817 36.5396 82.5536 36.5177 82.5319C36.4959 82.5102 36.4677 82.496 36.4373 82.4913L35.7751 82.3942C35.5691 82.3648 35.4499 82.2485 35.4176 82.0455L34.5877 77C34.5553 76.797 34.6377 76.6675 34.8349 76.6116L35.5588 76.4086C35.58 76.4025 35.5992 76.3909 35.6144 76.3749C35.6296 76.3589 35.6404 76.3391 35.6457 76.3174C35.6511 76.2956 35.6507 76.2727 35.6448 76.2508C35.6388 76.2289 35.6275 76.2087 35.6118 76.1922L35.5235 76.104C35.5029 76.0804 35.4764 76.0687 35.4441 76.0687L34.7334 76.0554C34.5333 76.0495 34.417 75.948 34.3846 75.7508L33.5327 70.7363C33.5033 70.5597 33.5636 70.4229 33.7137 70.3258L34.2655 69.9682C34.2806 69.9579 34.2924 69.9433 34.2993 69.9262C34.3061 69.9092 34.3077 69.8905 34.304 69.8725C34.3002 69.8546 34.2911 69.8381 34.278 69.8253C34.2649 69.8125 34.2482 69.8038 34.2301 69.8005L33.6122 69.7078C33.4326 69.6813 33.3297 69.5798 33.3032 69.4032L32.5086 64.3975C32.488 64.2504 32.5086 64.1106 32.5704 63.9781C32.7058 63.6927 32.6602 63.4514 32.4336 63.2542C32.3365 63.1718 32.2776 63.0688 32.257 62.9452L28.8536 42.5119C28.8536 42.4779 28.8402 42.4453 28.8162 42.4213C28.7921 42.3973 28.7596 42.3838 28.7256 42.3838C28.6917 42.3838 28.6591 42.3973 28.6351 42.4213C28.6111 42.4453 28.5976 42.4779 28.5976 42.5119L26.2581 56.7212C26.2375 56.8389 26.1772 56.9287 26.0771 56.9904C25.8299 57.1435 25.7931 57.3421 25.9668 57.5864C26.0518 57.7052 26.0867 57.8526 26.0639 57.9969C25.799 59.6655 25.5062 61.3193 25.1854 62.9585C25.1325 63.2263 24.9883 63.3719 24.7528 63.3955C24.6322 63.4072 24.6101 63.4617 24.6866 63.5588C24.9309 63.8648 25.0103 64.2798 24.925 64.8036C24.6837 66.2956 24.4424 67.7729 24.2011 69.2355C24.176 69.3859 24.0984 69.5226 23.982 69.6212C23.8656 69.7199 23.718 69.774 23.5654 69.774H23.2785C23.255 69.7733 23.232 69.7809 23.2135 69.7953C23.1949 69.8097 23.1819 69.8301 23.1767 69.853C23.1715 69.8759 23.1744 69.8999 23.1849 69.9209C23.1954 69.9419 23.2129 69.9587 23.2344 69.9682L23.7464 70.2198C23.923 70.3081 23.9951 70.4494 23.9627 70.6436C23.6831 72.2651 23.4109 73.8822 23.1461 75.4948C23.0696 75.9657 22.6958 76.1849 22.0249 76.1525C21.9945 76.1509 21.9645 76.1602 21.9403 76.1787C21.9162 76.1973 21.8994 76.2238 21.893 76.2535C21.8866 76.2833 21.8911 76.3144 21.9055 76.3412C21.92 76.368 21.9435 76.3887 21.9719 76.3997L22.6164 76.6602C22.7037 76.6954 22.7764 76.759 22.8222 76.8402C22.8681 76.9213 22.8842 77.0152 22.868 77.106L22.0602 81.9175C22.0448 82.008 22.0109 82.094 21.9607 82.1701C21.9105 82.2461 21.8452 82.3104 21.7688 82.3589C21.5216 82.5149 21.2656 82.4957 21.0008 82.3015C20.9765 82.284 20.9478 82.2737 20.9179 82.2719C20.888 82.27 20.8582 82.2766 20.832 82.2908C20.8057 82.3051 20.7839 82.3266 20.7693 82.3527C20.7547 82.3788 20.7477 82.4085 20.7492 82.4384C20.7521 82.4796 20.7536 82.5178 20.7536 82.5531C20.7536 82.5737 20.7624 82.5899 20.7801 82.6017L21.6452 83.149C21.6949 83.1802 21.7343 83.2253 21.7586 83.2786C21.7829 83.332 21.7911 83.3913 21.7821 83.4492C21.4407 85.8035 21.2127 87.2852 21.0979 87.8943C20.9566 88.6536 20.4608 88.9287 19.6103 88.7198C19.5682 88.7108 19.5243 88.7176 19.4868 88.7388C19.4494 88.7599 19.4209 88.794 19.4068 88.8347C19.3927 88.8753 19.394 88.9197 19.4103 88.9595C19.4266 88.9993 19.4569 89.0318 19.4955 89.0508L20.5814 89.5541C20.6474 89.5849 20.7015 89.636 20.7358 89.6997C20.77 89.7634 20.7825 89.8362 20.7712 89.9072L19.9546 94.6878C19.9404 94.7724 19.8997 94.8503 19.8385 94.9098C19.7773 94.9694 19.6989 95.0076 19.6147 95.0189C19.1821 95.0836 18.7613 95.0924 18.3522 95.0453C18.2375 95.0306 18.1536 95.0453 18.1006 95.0895C18.0683 95.1189 18.0433 95.1527 18.0256 95.191C17.9932 95.2646 18.0153 95.3175 18.0918 95.3499L19.4337 95.9282C19.6044 96.0017 19.6765 96.1298 19.65 96.3122L18.9658 100.784C18.9426 100.937 18.8648 101.077 18.7466 101.178C18.6284 101.28 18.4775 101.335 18.3214 101.336H17.1074C17.0703 101.334 17.0343 101.346 17.0051 101.369C16.9758 101.391 16.9552 101.423 16.9465 101.459C16.9378 101.496 16.9416 101.534 16.9572 101.568C16.9728 101.603 16.9993 101.631 17.0324 101.649L18.4494 102.404C18.5818 102.474 18.6362 102.583 18.6127 102.73L17.8358 107.454C17.8233 107.531 17.7842 107.601 17.7253 107.651C17.6664 107.702 17.5914 107.731 17.5135 107.732L15.7655 107.741C15.5566 107.741 15.5183 107.82 15.6508 107.979C15.8891 108.257 16.9574 108.509 17.39 108.884C17.5135 108.987 17.5621 109.118 17.5356 109.277L16.7808 113.753C16.7543 113.909 16.6631 113.988 16.5071 113.991L14.5604 114.044C14.5237 114.043 14.4879 114.056 14.459 114.078C14.4302 114.101 14.4102 114.133 14.4024 114.169C14.3946 114.205 14.3995 114.243 14.4162 114.275C14.433 114.308 14.4605 114.334 14.4942 114.349L16.1098 115.112C16.2321 115.171 16.3319 115.268 16.394 115.387C16.4562 115.507 16.4773 115.643 16.4541 115.774L15.7699 119.933C15.7538 120.028 15.7055 120.114 15.6332 120.177C15.5608 120.241 15.4688 120.278 15.3727 120.281L11.9207 120.423C11.703 120.431 11.6441 120.533 11.7442 120.727L12.0973 121.429C12.1738 121.579 12.1326 121.679 11.9737 121.729C11.1438 121.994 10.4773 120.418 10.3846 119.875C10.3783 119.84 10.3798 119.804 10.3889 119.769C10.3981 119.734 10.4148 119.701 10.4378 119.673C10.4608 119.645 10.4896 119.622 10.5223 119.606C10.555 119.59 10.5908 119.581 10.6274 119.579L14.6708 119.416C14.865 119.407 14.9769 119.307 15.0063 119.116L15.4874 116.119C15.5139 115.945 15.4492 115.82 15.2932 115.744L11.8766 114.066C11.7898 114.024 11.7197 113.953 11.6774 113.867C11.6352 113.78 11.6233 113.681 11.6436 113.587C11.664 113.492 11.7153 113.407 11.7895 113.345C11.8638 113.283 11.9566 113.248 12.0532 113.245L15.8362 113.108C15.8908 113.106 15.9429 113.085 15.9839 113.049C16.0249 113.013 16.0522 112.964 16.0613 112.91L16.5822 109.643C16.6057 109.511 16.5557 109.414 16.4321 109.352L13.1082 107.727C13.0172 107.682 12.9442 107.607 12.901 107.514C12.8577 107.422 12.8466 107.318 12.8695 107.219C12.8924 107.12 12.948 107.031 13.0273 106.967C13.1065 106.903 13.205 106.868 13.3068 106.867L16.794 106.849C16.9559 106.846 17.0501 106.767 17.0765 106.611L17.646 103.287C17.6725 103.131 17.6136 103.016 17.4694 102.942L14.4059 101.411C14.3201 101.368 14.2509 101.299 14.2093 101.213C14.1678 101.126 14.1562 101.029 14.1765 100.935C14.1968 100.842 14.2479 100.758 14.3214 100.697C14.395 100.636 14.4869 100.601 14.5825 100.598L17.8843 100.47C18.0344 100.465 18.1212 100.387 18.1448 100.236L18.6921 96.8198C18.7186 96.6462 18.6539 96.5212 18.4979 96.4446L15.7435 95.0851C15.6601 95.0429 15.5927 94.9744 15.5518 94.8901C15.5109 94.8058 15.4989 94.7106 15.5176 94.6193C15.5362 94.5281 15.5845 94.4458 15.655 94.3855C15.7254 94.3253 15.8139 94.2903 15.9068 94.2861L18.9349 94.1272C19.0909 94.1184 19.1806 94.0374 19.2042 93.8844L19.7604 90.3751C19.7839 90.2132 19.7221 90.0985 19.575 90.0308C18.6951 89.6188 17.8534 89.1774 17.0501 88.7065C16.644 88.4711 16.6675 88.2077 17.1207 87.9164C17.161 87.8904 17.207 87.8766 17.2531 87.8767L19.9855 87.8722C20.1297 87.8693 20.2136 87.7972 20.2371 87.6559L20.8595 83.9083C20.8686 83.8546 20.8598 83.7991 20.8344 83.7499C20.809 83.7006 20.7683 83.6603 20.7183 83.6346L18.3081 82.456C18.2133 82.4112 18.1367 82.3352 18.0911 82.2408C18.0455 82.1464 18.0335 82.0393 18.0573 81.9371C18.081 81.835 18.139 81.7441 18.2215 81.6795C18.3041 81.6149 18.4063 81.5805 18.5112 81.582H21.0537C21.1862 81.582 21.2627 81.5173 21.2833 81.3878L21.9145 77.5827C21.9439 77.4062 21.8792 77.2782 21.7203 77.1987L19.5617 76.1172C19.4785 76.0759 19.4113 76.008 19.3708 75.9244C19.3302 75.8407 19.3187 75.7459 19.3379 75.655C19.3571 75.564 19.406 75.482 19.4769 75.4218C19.5477 75.3617 19.6366 75.3268 19.7295 75.3227L21.8042 75.2167C22.1455 75.1961 22.3427 75.0181 22.3957 74.6826L22.9607 71.1247C22.9721 71.0554 22.9611 70.9842 22.9294 70.9215C22.8976 70.8589 22.8467 70.8079 22.7841 70.776L20.8242 69.7961C20.7366 69.7526 20.6662 69.6814 20.624 69.5935C20.5818 69.5056 20.5701 69.406 20.5907 69.3102C20.6114 69.2144 20.6633 69.1278 20.7383 69.064C20.8132 69.0002 20.9071 68.9627 21.0052 68.9574L23.1152 68.8647C23.2682 68.8558 23.358 68.7749 23.3844 68.6219L24.0068 64.7197C24.0363 64.5314 23.9671 64.3945 23.7994 64.3092L22.1529 63.4573C22.0636 63.41 21.9926 63.3343 21.9512 63.2421C21.9097 63.15 21.9001 63.0467 21.9239 62.9485C21.9477 62.8503 22.0035 62.7628 22.0826 62.6999C22.1616 62.6369 22.2593 62.6021 22.3603 62.6009H24.1658C24.307 62.6009 24.3894 62.5318 24.413 62.3934L25.106 58.2573C25.1354 58.0719 25.0663 57.9395 24.8985 57.8601L23.4771 57.1847C23.4111 57.1542 23.3551 57.1051 23.316 57.0433C23.2769 56.9815 23.2562 56.9095 23.2564 56.836V56.5225C23.2564 56.343 23.1667 56.2489 22.9872 56.24C15.6625 55.8428 8.33347 55.9355 1 56.5181ZM41.7873 95.0409L38.9357 96.4932C38.877 96.5223 38.8291 96.5697 38.7989 96.6284C38.7687 96.6871 38.7579 96.7542 38.768 96.8198L39.355 100.263C39.3685 100.341 39.4087 100.411 39.4685 100.462C39.5282 100.513 39.6037 100.541 39.6817 100.541L45.2877 100.523C45.3663 100.523 45.4424 100.495 45.5022 100.443C45.5621 100.391 45.6018 100.319 45.6144 100.241L46.1529 96.8287C46.1632 96.7697 46.1542 96.7088 46.1272 96.6549C46.1002 96.6009 46.0567 96.5567 46.0028 96.5285L43.1248 95.0674C43.0459 95.0257 42.9827 94.9594 42.9448 94.8786C42.907 94.7978 42.8965 94.7068 42.9149 94.6195C42.9334 94.5322 42.9798 94.4533 43.0472 94.3947C43.1145 94.3361 43.1991 94.3011 43.2881 94.2949L46.2235 94.136C46.3311 94.1313 46.4337 94.0896 46.5141 94.0181C46.5945 93.9465 46.6478 93.8494 46.665 93.7431L47.2344 90.3795C47.2609 90.2177 47.2006 90.1014 47.0534 90.0308L44.4844 88.7639C44.3895 88.716 44.3132 88.6375 44.268 88.541C44.2227 88.4445 44.2112 88.3358 44.2353 88.2325C44.2593 88.1292 44.3175 88.0374 44.4004 87.972C44.4833 87.9066 44.586 87.8714 44.6918 87.8722H47.4419C47.5802 87.8722 47.6596 87.8046 47.6802 87.6692L48.3026 83.9524C48.3141 83.8848 48.303 83.8152 48.2712 83.7539C48.2394 83.6927 48.1885 83.6431 48.1261 83.6125L45.7777 82.456C45.6858 82.41 45.6119 82.3345 45.568 82.2415C45.5241 82.1485 45.5127 82.0435 45.5356 81.9432C45.5585 81.843 45.6143 81.7533 45.6943 81.6886C45.7742 81.6239 45.8735 81.5879 45.9764 81.5864L48.4925 81.582C48.5542 81.5808 48.6135 81.5581 48.6603 81.5178C48.707 81.4775 48.7382 81.4221 48.7485 81.3613L49.3709 77.5386C49.3823 77.4641 49.3696 77.388 49.3346 77.3213C49.2997 77.2546 49.2443 77.2008 49.1767 77.1678L47.1373 76.179C47.049 76.135 46.9777 76.0632 46.9342 75.9747C46.8907 75.8862 46.8774 75.7859 46.8965 75.6891C46.9155 75.5924 46.9658 75.5045 47.0396 75.4391C47.1134 75.3737 47.2067 75.3343 47.305 75.3271L49.521 75.1946C49.6946 75.1829 49.7946 75.0916 49.8211 74.921L50.4435 71.0983C50.4671 70.9629 50.417 70.8643 50.2934 70.8025L48.2938 69.8049C48.2059 69.7596 48.135 69.6865 48.0922 69.5971C48.0495 69.5076 48.0372 69.4067 48.0573 69.3101C48.0775 69.2135 48.1289 69.1266 48.2035 69.0628C48.2782 68.999 48.372 68.9619 48.4704 68.9574L50.5804 68.8647C50.7334 68.8558 50.8217 68.7779 50.8452 68.6307L51.4765 64.6932C51.4865 64.6292 51.4761 64.5636 51.4468 64.5058C51.4175 64.4479 51.3707 64.4008 51.3131 64.371L49.4989 63.4396C49.4106 63.3944 49.3401 63.3207 49.2988 63.2305C49.2575 63.1403 49.2478 63.0388 49.2713 62.9424C49.2947 62.8459 49.35 62.7603 49.4281 62.6991C49.5063 62.638 49.6027 62.6049 49.7019 62.6053L51.6133 62.5965C51.6899 62.596 51.7636 62.5679 51.8205 62.5175C51.8775 62.4671 51.9137 62.3978 51.9223 62.3228L52.1165 60.7558C52.1312 60.6292 52.0768 60.5512 51.9532 60.5218C45.1995 58.8915 39.3241 57.813 34.3273 57.2862C33.7534 57.2274 33.1369 57.4745 32.4777 58.0278C32.3924 58.0984 32.3585 58.1896 32.3762 58.3015L33.056 62.3361C33.0685 62.41 33.1063 62.4771 33.1629 62.5256C33.2194 62.5741 33.291 62.6007 33.365 62.6009H35.0998C35.2046 62.5999 35.3064 62.6344 35.3887 62.699C35.4709 62.7636 35.5287 62.8545 35.5528 62.9567C35.5768 63.059 35.5656 63.1668 35.5211 63.2624C35.4765 63.3581 35.4011 63.4361 35.3072 63.4837L33.6431 64.3269C33.5777 64.3605 33.5246 64.4135 33.4913 64.4785C33.458 64.5435 33.4462 64.6171 33.4577 64.6888L34.0757 68.6572C34.0992 68.7896 34.1772 68.8588 34.3096 68.8647L36.4328 68.953C36.5314 68.9564 36.626 68.9927 36.7016 69.0562C36.7771 69.1197 36.8292 69.2066 36.8495 69.3032C36.8698 69.3997 36.8572 69.5003 36.8137 69.5888C36.7702 69.6774 36.6983 69.7488 36.6094 69.7916L34.857 70.6701C34.7343 70.7315 34.6346 70.8308 34.5726 70.9532C34.5106 71.0755 34.4896 71.2146 34.5127 71.3499L35.1262 74.8856C35.1586 75.0799 35.2734 75.1829 35.4705 75.1946L37.66 75.3271C37.76 75.3329 37.8553 75.3716 37.9311 75.4371C38.0069 75.5027 38.0589 75.5914 38.079 75.6896C38.0992 75.7878 38.0863 75.8898 38.0425 75.9799C37.9986 76.07 37.9262 76.1431 37.8366 76.1878L35.7398 77.234C35.6748 77.267 35.6222 77.3199 35.5896 77.3851C35.557 77.4503 35.5462 77.5242 35.5588 77.596L36.2165 81.3348C36.229 81.4042 36.2654 81.4669 36.3195 81.5121C36.3736 81.5573 36.4418 81.5821 36.5123 81.582H38.9666C39.0725 81.581 39.1757 81.616 39.2591 81.6813C39.3426 81.7465 39.4015 81.8382 39.4261 81.9412C39.4507 82.0442 39.4396 82.1526 39.3946 82.2485C39.3496 82.3444 39.2734 82.4223 39.1785 82.4693L36.8345 83.639C36.6815 83.7155 36.6182 83.8391 36.6447 84.0098L37.2274 87.5809C37.2598 87.7722 37.3745 87.8693 37.5717 87.8722L40.2776 87.8767C40.3842 87.8769 40.4875 87.9132 40.5708 87.9796C40.6542 88.046 40.7126 88.1386 40.7366 88.2424C40.7607 88.3463 40.7489 88.4551 40.7032 88.5514C40.6576 88.6477 40.5807 88.7257 40.4851 88.7727L37.9072 90.044C37.7483 90.1205 37.6835 90.2456 37.713 90.4192L38.2868 93.88C38.3133 94.0389 38.4075 94.1213 38.5693 94.1272L41.6284 94.2905C41.7155 94.2953 41.7987 94.3287 41.865 94.3855C41.9313 94.4424 41.977 94.5194 41.9951 94.6049C42.0132 94.6903 42.0026 94.7793 41.9651 94.8581C41.9275 94.9369 41.865 95.0012 41.7873 95.0409ZM44.992 103.287C45.0015 103.23 44.9925 103.172 44.9662 103.121C44.94 103.07 44.8979 103.029 44.8463 103.004L42.6127 101.896C42.5758 101.878 42.5349 101.868 42.4935 101.868C42.4521 101.868 42.4113 101.878 42.3744 101.896L40.0746 103.035C40.0238 103.061 39.9827 103.102 39.9572 103.153C39.9318 103.204 39.9234 103.262 39.9333 103.318L40.516 106.527C40.5273 106.587 40.5596 106.642 40.6071 106.682C40.6547 106.721 40.7146 106.743 40.7764 106.743H44.1842C44.2467 106.743 44.3071 106.721 44.3547 106.68C44.4024 106.64 44.4342 106.584 44.4446 106.522L44.992 103.287ZM43.6236 109.078L41.3547 109.06C41.3039 109.06 41.2552 109.08 41.2189 109.116C41.1826 109.151 41.1616 109.2 41.1605 109.25L41.1516 109.886C41.1479 110.3 41.1642 110.711 41.1995 111.094C41.2348 111.477 41.2884 111.826 41.3573 112.119C41.4262 112.413 41.509 112.646 41.6009 112.805C41.6929 112.964 41.7922 113.046 41.8932 113.046L43.0144 113.055C43.2179 113.056 43.4158 112.725 43.5648 112.136C43.7137 111.547 43.8016 110.747 43.809 109.912L43.8178 109.277C43.8184 109.251 43.8138 109.225 43.8043 109.201C43.7948 109.177 43.7806 109.155 43.7625 109.137C43.7444 109.118 43.7228 109.103 43.6989 109.093C43.6751 109.083 43.6495 109.078 43.6236 109.078Z" fill="white"/>
<path d="M43.862 114.808C43.8741 114.808 43.8862 114.81 43.8974 114.815C43.9087 114.819 43.9189 114.826 43.9275 114.835C43.9361 114.844 43.9429 114.854 43.9476 114.865C43.9523 114.876 43.9547 114.888 43.9547 114.9V114.962C43.9547 116.422 43.8282 117.822 43.603 118.855C43.3778 119.887 43.0724 120.467 42.754 120.467H42.1537C41.8352 120.467 41.5298 119.887 41.3047 118.855C41.0795 117.822 40.953 116.422 40.953 114.962V114.9C40.953 114.876 40.9628 114.852 40.9802 114.835C40.9975 114.818 41.0211 114.808 41.0457 114.808H43.862ZM42.6966 115.823L42.2287 115.814C42.2144 115.814 42.2002 115.816 42.1868 115.821C42.1734 115.826 42.1612 115.834 42.1509 115.844C42.1406 115.854 42.1324 115.865 42.1268 115.879C42.1212 115.892 42.1183 115.906 42.1184 115.92V115.991C42.1125 116.464 42.1414 116.917 42.1985 117.253C42.2556 117.588 42.3363 117.777 42.4229 117.779H42.4494C42.4923 117.779 42.5354 117.734 42.5761 117.645C42.6169 117.556 42.6545 117.425 42.6869 117.26C42.7193 117.095 42.7458 116.898 42.7649 116.682C42.784 116.466 42.7953 116.234 42.7981 116V115.929C42.7982 115.902 42.7876 115.875 42.7687 115.856C42.7498 115.836 42.7239 115.824 42.6966 115.823Z" fill="white"/>
<path d="M42.6966 115.823C42.7239 115.824 42.7498 115.836 42.7687 115.856C42.7876 115.875 42.7982 115.902 42.7981 115.929V116C42.7953 116.234 42.784 116.466 42.7649 116.682C42.7458 116.898 42.7193 117.095 42.6869 117.26C42.6545 117.425 42.6169 117.556 42.5761 117.645C42.5354 117.734 42.4923 117.779 42.4494 117.779H42.4229C42.3363 117.777 42.2556 117.588 42.1985 117.253C42.1414 116.917 42.1125 116.464 42.1183 115.991V115.92C42.1183 115.906 42.1212 115.892 42.1268 115.879C42.1324 115.865 42.1406 115.854 42.1509 115.844C42.1612 115.834 42.1734 115.826 42.1868 115.821C42.2002 115.816 42.2144 115.814 42.2287 115.814L42.6966 115.823Z" fill="white"/>
</svg>
