<svg width="27" height="27" viewBox="0 0 27 27" fill="none" xmlns="http://www.w3.org/2000/svg">
<path d="M1 3.22222C1 2.44437 1 2.05544 1.15137 1.75835C1.28454 1.49701 1.49701 1.28454 1.75835 1.15137C2.05544 1 2.44437 1 3.22222 1H23.7778C24.5557 1 24.9446 1 25.2417 1.15137C25.5031 1.28454 25.7154 1.49701 25.8486 1.75835C26 2.05544 26 2.44437 26 3.22222V5.63508C26 5.97479 26 6.14464 25.9617 6.30449C25.9276 6.44621 25.8715 6.58168 25.7953 6.70594C25.7094 6.84611 25.5893 6.96622 25.3492 7.20643L16.9286 15.6269C16.6885 15.8671 16.5683 15.9872 16.4825 16.1274C16.4062 16.2517 16.3501 16.3871 16.3161 16.5289C16.2778 16.6888 16.2778 16.8586 16.2778 17.1982V20.4444L10.7222 26V17.1982C10.7222 16.8586 10.7222 16.6888 10.6838 16.5289C10.6498 16.3871 10.5937 16.2517 10.5176 16.1274C10.4317 15.9872 10.3116 15.8671 10.0713 15.6269L1.65088 7.20643C1.41067 6.96622 1.29056 6.84611 1.20467 6.70594C1.12851 6.58168 1.0724 6.44621 1.03838 6.30449C1 6.14464 1 5.97479 1 5.63508V3.22222Z" stroke="black" stroke-width="2" stroke-linecap="round" stroke-linejoin="round"/>
</svg>
