<svg width="22" height="22" viewBox="0 0 22 22" fill="none" xmlns="http://www.w3.org/2000/svg">
<path d="M0.943 22C0.693003 21.9997 0.453341 21.9002 0.276566 21.7234C0.099791 21.5467 0.000332665 21.307 0 21.057L0 15.8001C0.000904793 15.5502 0.100297 15.3108 0.276613 15.1337L14.4103 1.00252C14.7279 0.684698 15.105 0.432573 15.5201 0.260556C15.9352 0.0885385 16.3801 0 16.8294 0C17.2787 0 17.7236 0.0885385 18.1387 0.260556C18.5538 0.432573 18.9309 0.684698 19.2485 1.00252L20.9975 2.75147C21.3153 3.06908 21.5674 3.44619 21.7394 3.86128C21.9115 4.27636 22 4.72127 22 5.17058C22 5.6199 21.9115 6.06481 21.7394 6.47989C21.5674 6.89497 21.3153 7.27209 20.9975 7.58969L6.86756 21.7234C6.78005 21.8113 6.676 21.881 6.56141 21.9285C6.44681 21.976 6.32395 22.0003 6.19991 22H0.943ZM1.886 16.1899V20.114H5.80888L15.7544 10.1685L11.8315 6.2456L1.886 16.1899ZM17.0884 8.83571L19.6672 6.25692C19.9546 5.96867 20.116 5.57825 20.116 5.17121C20.116 4.76418 19.9546 4.37375 19.6672 4.0855L17.9158 2.33278C17.6277 2.04509 17.2372 1.8835 16.83 1.8835C16.4229 1.8835 16.0324 2.04509 15.7443 2.33278L13.1643 4.91283L17.0884 8.83571Z" fill="#597393"/>
</svg>
