<svg width="52" height="54" viewBox="0 0 52 54" fill="none" xmlns="http://www.w3.org/2000/svg">
<path d="M25.5706 34.5C29.7127 34.5 33.0706 31.1421 33.0706 27C33.0706 22.8579 29.7127 19.5 25.5706 19.5C21.4284 19.5 18.0706 22.8579 18.0706 27C18.0706 31.1421 21.4284 34.5 25.5706 34.5Z" stroke="black" stroke-width="3.75"/>
<path d="M29.984 2.3806C29.065 2 27.9003 2 25.5705 2C23.2408 2 22.076 2 21.157 2.3806C19.932 2.88808 18.9586 3.86145 18.4511 5.08658C18.2195 5.64585 18.1288 6.29625 18.0933 7.24498C18.0412 8.6392 17.3262 9.92973 16.1179 10.6273C14.9096 11.3249 13.4345 11.2988 12.201 10.6469C11.3617 10.2032 10.7531 9.95655 10.1529 9.87755C8.83815 9.70445 7.5085 10.0607 6.45645 10.868C5.6674 11.4735 5.08497 12.4822 3.92012 14.4998C2.75527 16.5174 2.17285 17.5262 2.04303 18.5123C1.86995 19.827 2.22622 21.1566 3.0335 22.2087C3.40195 22.689 3.9198 23.0925 4.72353 23.5975C5.90505 24.34 6.66528 25.6048 6.6652 27C6.66513 28.3952 5.90493 29.6597 4.7235 30.402C3.91968 30.9072 3.40175 31.311 3.03325 31.7913C2.22598 32.8433 1.8697 34.1728 2.0428 35.4875C2.1726 36.4735 2.75503 37.4825 3.91988 39.5C5.08475 41.5175 5.66718 42.5265 6.4562 43.1317C7.50825 43.939 8.8379 44.2952 10.1526 44.1222C10.7528 44.0432 11.3613 43.7965 12.2006 43.353C13.4342 42.701 14.9094 42.675 16.1178 43.3725C17.3261 44.0702 18.0412 45.3607 18.0933 46.7552C18.1288 47.7037 18.2195 48.3542 18.4511 48.9135C18.9586 50.1385 19.932 51.112 21.157 51.6195C22.076 52 23.2408 52 25.5705 52C27.9003 52 29.065 52 29.984 51.6195C31.209 51.112 32.1825 50.1385 32.6898 48.9135C32.9215 48.3542 33.0123 47.7038 33.0478 46.755C33.0998 45.3608 33.8148 44.0702 35.023 43.3725C36.2313 42.6747 37.7066 42.701 38.9403 43.353C39.7796 43.7965 40.388 44.043 40.988 44.122C42.3028 44.2953 43.6326 43.939 44.6846 43.1317C45.4736 42.5262 46.0561 41.5175 47.2208 39.4998C48.3858 37.4823 48.9683 36.4735 49.0981 35.4875C49.2711 34.1728 48.9148 32.843 48.1075 31.791C47.739 31.3107 47.2211 30.907 46.4173 30.402C45.2361 29.6597 44.4758 28.395 44.4758 26.9997C44.4758 25.6045 45.2361 24.3403 46.4173 23.598C47.2213 23.0928 47.7393 22.6892 48.1078 22.2087C48.9151 21.1568 49.2713 19.8272 49.0983 18.5124C48.9686 17.5264 48.3861 16.5176 47.2211 14.5C46.0563 12.4824 45.4738 11.4736 44.6848 10.8682C43.6328 10.0609 42.3031 9.70463 40.9883 9.87773C40.3883 9.95673 39.7798 10.2034 38.9403 10.647C37.7068 11.299 36.2316 11.3251 35.0233 10.6274C33.8148 9.92978 33.0998 8.63915 33.0478 7.24485C33.0123 6.2962 32.9215 5.64583 32.6898 5.08658C32.1825 3.86145 31.209 2.88808 29.984 2.3806Z" stroke="black" stroke-width="3.75"/>
</svg>
